<svg width="43" height="51" viewBox="0 0 43 51" fill="none" xmlns="http://www.w3.org/2000/svg">
<path d="M12.8341 24.2501C10.6964 25.523 5.09152 28.1221 8.50529 31.3744C10.1729 32.9631 12.0302 34.0994 14.3652 34.0994H27.6895C30.0245 34.0994 31.8818 32.9631 33.5494 31.3744C36.9632 28.1221 31.3583 25.523 29.2206 24.2501C24.2077 21.2653 17.847 21.2653 12.8341 24.2501Z" stroke="black" stroke-width="2.26648" stroke-linecap="round" stroke-linejoin="round"/>
<path d="M27.8269 10.6791C27.8269 14.4343 24.7827 17.4785 21.0275 17.4785C17.2722 17.4785 14.228 14.4343 14.228 10.6791C14.228 6.92385 17.2722 3.87964 21.0275 3.87964C24.7827 3.87964 27.8269 6.92385 27.8269 10.6791Z" stroke="black" stroke-width="2.26648"/>
<path d="M1.70463 47.1213H0.276231L2.87692 39.7341H4.52895L7.13325 47.1213H5.70485L3.73179 41.249H3.67408L1.70463 47.1213ZM1.75152 44.2249H5.64714V45.2998H1.75152V44.2249ZM10.2966 47.2295C9.74356 47.2295 9.26863 47.1081 8.87185 46.8652C8.47748 46.6224 8.17328 46.2869 7.95926 45.8589C7.74765 45.4284 7.64184 44.9331 7.64184 44.3728C7.64184 43.8101 7.75005 43.3135 7.96648 42.883C8.1829 42.4502 8.4883 42.1135 8.88267 41.8731C9.27945 41.6302 9.74836 41.5088 10.2894 41.5088C10.7391 41.5088 11.1371 41.5917 11.4834 41.7576C11.832 41.9212 12.1098 42.1532 12.3166 42.4538C12.5234 42.752 12.6412 43.1007 12.6701 43.4999H11.422C11.3715 43.2329 11.2513 43.0105 11.0613 42.8325C10.8738 42.6522 10.6225 42.562 10.3075 42.562C10.0405 42.562 9.80608 42.6342 9.60408 42.7784C9.40209 42.9203 9.24458 43.1247 9.13156 43.3916C9.02094 43.6586 8.96563 43.9784 8.96563 44.3511C8.96563 44.7287 9.02094 45.0533 9.13156 45.325C9.24217 45.5944 9.39728 45.8024 9.59687 45.949C9.79886 46.0933 10.0357 46.1655 10.3075 46.1655C10.4998 46.1655 10.6718 46.1294 10.8233 46.0573C10.9772 45.9827 11.1058 45.8757 11.2092 45.7362C11.3126 45.5968 11.3836 45.4272 11.422 45.2276H12.6701C12.6388 45.6196 12.5234 45.9671 12.3238 46.2701C12.1242 46.5707 11.8525 46.8063 11.5086 46.9771C11.1647 47.1454 10.7607 47.2295 10.2966 47.2295ZM16.159 47.2295C15.6059 47.2295 15.131 47.1081 14.7342 46.8652C14.3398 46.6224 14.0357 46.2869 13.8216 45.8589C13.61 45.4284 13.5042 44.9331 13.5042 44.3728C13.5042 43.8101 13.6124 43.3135 13.8288 42.883C14.0453 42.4502 14.3507 42.1135 14.745 41.8731C15.1418 41.6302 15.6107 41.5088 16.1518 41.5088C16.6015 41.5088 16.9995 41.5917 17.3457 41.7576C17.6944 41.9212 17.9722 42.1532 18.179 42.4538C18.3858 42.752 18.5036 43.1007 18.5325 43.4999H17.2844C17.2339 43.2329 17.1137 43.0105 16.9237 42.8325C16.7361 42.6522 16.4848 42.562 16.1698 42.562C15.9029 42.562 15.6684 42.6342 15.4665 42.7784C15.2645 42.9203 15.1069 43.1247 14.9939 43.3916C14.8833 43.6586 14.828 43.9784 14.828 44.3511C14.828 44.7287 14.8833 45.0533 14.9939 45.325C15.1045 45.5944 15.2596 45.8024 15.4592 45.949C15.6612 46.0933 15.8981 46.1655 16.1698 46.1655C16.3622 46.1655 16.5341 46.1294 16.6856 46.0573C16.8395 45.9827 16.9682 45.8757 17.0716 45.7362C17.175 45.5968 17.2459 45.4272 17.2844 45.2276H18.5325C18.5012 45.6196 18.3858 45.9671 18.1862 46.2701C17.9866 46.5707 17.7149 46.8063 17.371 46.9771C17.0271 47.1454 16.6231 47.2295 16.159 47.2295ZM22.0214 47.2295C21.4803 47.2295 21.0114 47.1105 20.6146 46.8725C20.2178 46.6344 19.91 46.3013 19.6912 45.8733C19.4748 45.4453 19.3666 44.9451 19.3666 44.3728C19.3666 43.8004 19.4748 43.2991 19.6912 42.8686C19.91 42.4382 20.2178 42.1039 20.6146 41.8659C21.0114 41.6278 21.4803 41.5088 22.0214 41.5088C22.5624 41.5088 23.0314 41.6278 23.4281 41.8659C23.8249 42.1039 24.1315 42.4382 24.3479 42.8686C24.5668 43.2991 24.6762 43.8004 24.6762 44.3728C24.6762 44.9451 24.5668 45.4453 24.3479 45.8733C24.1315 46.3013 23.8249 46.6344 23.4281 46.8725C23.0314 47.1105 22.5624 47.2295 22.0214 47.2295ZM22.0286 46.1835C22.322 46.1835 22.5672 46.1029 22.7644 45.9418C22.9616 45.7783 23.1083 45.5595 23.2045 45.2853C23.3031 45.0112 23.3524 44.7058 23.3524 44.3692C23.3524 44.0301 23.3031 43.7235 23.2045 43.4494C23.1083 43.1728 22.9616 42.9528 22.7644 42.7893C22.5672 42.6257 22.322 42.544 22.0286 42.544C21.728 42.544 21.4779 42.6257 21.2783 42.7893C21.0811 42.9528 20.9332 43.1728 20.8347 43.4494C20.7385 43.7235 20.6904 44.0301 20.6904 44.3692C20.6904 44.7058 20.7385 45.0112 20.8347 45.2853C20.9332 45.5595 21.0811 45.7783 21.2783 45.9418C21.4779 46.1029 21.728 46.1835 22.0286 46.1835ZM29.3158 44.7912V41.5809H30.6215V47.1213H29.3554V46.1366H29.2977C29.1727 46.4468 28.9671 46.7005 28.6809 46.8977C28.3972 47.0949 28.0473 47.1935 27.6313 47.1935C27.2681 47.1935 26.9471 47.1129 26.6682 46.9518C26.3916 46.7883 26.1752 46.5514 26.0189 46.2412C25.8626 45.9286 25.7844 45.5511 25.7844 45.1086V41.5809H27.0902V44.9066C27.0902 45.2577 27.1864 45.5366 27.3788 45.7434C27.5711 45.9502 27.8236 46.0536 28.1362 46.0536C28.3286 46.0536 28.515 46.0068 28.6953 45.913C28.8757 45.8192 29.0236 45.6797 29.139 45.4946C29.2568 45.307 29.3158 45.0725 29.3158 44.7912ZM33.27 43.875V47.1213H31.9642V41.5809H33.2123V42.5223H33.2772C33.4047 42.2121 33.6078 41.9656 33.8868 41.7829C34.1681 41.6001 34.5156 41.5088 34.9292 41.5088C35.3116 41.5088 35.6446 41.5905 35.9284 41.754C36.2145 41.9176 36.4358 42.1544 36.5921 42.4646C36.7508 42.7748 36.829 43.1512 36.8265 43.5936V47.1213H35.5208V43.7956C35.5208 43.4253 35.4246 43.1355 35.2322 42.9263C35.0423 42.7171 34.7789 42.6125 34.4423 42.6125C34.2138 42.6125 34.0106 42.663 33.8327 42.764C33.6571 42.8626 33.5189 43.0057 33.4179 43.1933C33.3193 43.3808 33.27 43.6081 33.27 43.875ZM40.9206 41.5809V42.5909H37.7355V41.5809H40.9206ZM38.5219 40.2535H39.8276V45.4549C39.8276 45.6304 39.8541 45.7651 39.907 45.8589C39.9623 45.9502 40.0344 46.0128 40.1234 46.0464C40.2124 46.0801 40.311 46.0969 40.4192 46.0969C40.5009 46.0969 40.5755 46.0909 40.6428 46.0789C40.7126 46.0669 40.7655 46.0561 40.8015 46.0464L41.0216 47.0672C40.9518 47.0913 40.852 47.1177 40.7222 47.1466C40.5947 47.1754 40.4384 47.1923 40.2533 47.1971C39.9262 47.2067 39.6316 47.1574 39.3695 47.0492C39.1074 46.9386 38.8994 46.7678 38.7455 46.537C38.594 46.3061 38.5195 46.0176 38.5219 45.6713V40.2535Z" fill="black"/>
</svg>
