<svg width="130" height="76" viewBox="0 0 130 76" fill="none" xmlns="http://www.w3.org/2000/svg">
<g style="mix-blend-mode:multiply" opacity="0.4">
<path d="M35.5615 60.6396C35.0657 53.5844 33.4068 48.8745 31.1186 42.2006C28.8304 35.5076 27.0761 28.2617 28.9257 21.4352C31.1949 13.0261 38.8222 6.67634 47.2695 4.55975C55.7358 2.4241 64.7932 4.06398 72.7638 7.59162C79.4377 10.5472 85.6158 14.8376 92.7664 16.2677C99.5166 17.6025 106.648 16.2677 113.284 18.1364C122.99 20.8632 129.969 30.7787 129.969 40.8658C129.988 50.972 123.466 60.5824 114.409 65.0253C111.511 66.4364 108.269 67.3898 105.085 66.9703C100.108 66.3411 96.008 62.5655 91.0693 61.7647C84.9103 60.7731 79.1135 64.5296 73.8507 67.8856C69.2361 70.803 64.4309 73.5489 59.149 74.9599C53.8862 76.3519 48.0322 76.2566 43.227 73.6824C38.4027 71.0891 34.9513 65.6927 35.5997 60.2773" fill="#FFC20C"/>
</g>
<path d="M111.339 40.7131L112.006 41.9334L113.227 42.6008L112.006 43.2682L111.339 44.4886L110.672 43.2682L109.451 42.6008L110.672 41.9334L111.339 40.7131Z" fill="white"/>
<path d="M42.9983 3.39661L44.028 5.28437L45.9348 6.31406L44.028 7.36281L42.9983 9.25058L41.9686 7.36281L40.0618 6.31406L41.9686 5.28437L42.9983 3.39661Z" fill="white"/>
<g style="mix-blend-mode:multiply" opacity="0.3">
<path d="M120.892 11.6149L118.604 7.64868H123.18L120.892 11.6149Z" fill="#FFC20C"/>
<path d="M119.424 3.96831L117.975 1.45129H120.892L119.424 3.96831Z" fill="#FFC20C"/>
<path d="M125.373 7.74399L122.456 2.70996H128.272L125.373 7.74399Z" fill="#FFC20C"/>
</g>
<path d="M29.8982 68.0381H30.7753C31.1757 68.0381 31.4808 67.733 31.4808 67.3517V66.4555C31.4808 66.0741 31.1757 65.7499 30.7753 65.7499H29.8982C29.5168 65.7499 29.1926 66.0741 29.1926 66.4555V67.3517C29.1926 67.733 29.5168 68.0381 29.8982 68.0381Z" fill="#FFC20C"/>
<path d="M26.6758 64.3767H27.8199C28.3347 64.3767 28.7352 63.9763 28.7352 63.4805V62.3173C28.7352 61.8215 28.3347 61.402 27.8199 61.402H26.6758C26.1609 61.402 25.7605 61.8215 25.7605 62.3173V63.4805C25.7605 63.9763 26.1609 64.3767 26.6758 64.3767Z" fill="#FFC20C"/>
<path d="M107.926 30.302H107.049C106.667 30.302 106.343 29.9778 106.343 29.5965V28.7193C106.343 28.3189 106.667 28.0138 107.049 28.0138H107.926C108.326 28.0138 108.631 28.3189 108.631 28.7193V29.5965C108.631 29.9778 108.326 30.302 107.926 30.302Z" fill="#FFC20C"/>
<path d="M111.148 26.6409H110.004C109.489 26.6409 109.089 26.2405 109.089 25.7256V24.5815C109.089 24.0667 109.489 23.6663 110.004 23.6663H111.148C111.663 23.6663 112.064 24.0667 112.064 24.5815V25.7256C112.064 26.2405 111.663 26.6409 111.148 26.6409Z" fill="#FFC20C"/>
<g style="mix-blend-mode:multiply">
<path d="M3.39331 39.7596H15.6542" stroke="#FFC20C" stroke-width="0.915278" stroke-miterlimit="10" stroke-linecap="round"/>
</g>
<g style="mix-blend-mode:multiply">
<path d="M18.114 39.7596H25.7795" stroke="#FFC20C" stroke-width="0.915278" stroke-miterlimit="10" stroke-linecap="round"/>
</g>
<g style="mix-blend-mode:multiply">
<path d="M0.800049 35.9269H19.1819" stroke="#FFC20C" stroke-width="0.915278" stroke-miterlimit="10" stroke-linecap="round"/>
</g>
<g style="mix-blend-mode:multiply">
<path d="M21.0125 35.9269H23.4723" stroke="#FFC20C" stroke-width="0.915278" stroke-miterlimit="10" stroke-linecap="round"/>
</g>
<g style="mix-blend-mode:multiply">
<path d="M5.70068 32.0942H18.2667" stroke="#FFC20C" stroke-width="0.915278" stroke-miterlimit="10" stroke-linecap="round"/>
</g>
<g style="mix-blend-mode:multiply">
<path d="M5.09033 29.0239H21.0124" stroke="#FFC20C" stroke-width="0.915278" stroke-miterlimit="10" stroke-linecap="round"/>
</g>
<path d="M123.18 53.241C123.18 54.4995 122.151 55.5292 120.892 55.5292C119.615 55.5292 118.604 54.4995 118.604 53.241C118.604 51.9634 119.615 50.9528 120.892 50.9528C122.151 50.9528 123.18 51.9634 123.18 53.241Z" fill="white"/>
<path d="M28.2965 57.2834C28.2965 57.9126 27.7817 58.4275 27.1524 58.4275C26.5041 58.4275 26.0083 57.9126 26.0083 57.2834C26.0083 56.6541 26.5041 56.1393 27.1524 56.1393C27.7817 56.1393 28.2965 56.6541 28.2965 57.2834Z" fill="white"/>
<path d="M59.2636 14.9328C59.2636 15.6765 58.6724 16.2676 57.9288 16.2676C57.1851 16.2676 56.594 15.6765 56.594 14.9328C56.594 14.1891 57.1851 13.598 57.9288 13.598C58.6724 13.598 59.2636 14.1891 59.2636 14.9328Z" fill="white"/>
<path d="M44.3331 66.379C44.3331 67.1036 43.742 67.7138 42.9984 67.7138C42.2547 67.7138 41.6636 67.1036 41.6636 66.379C41.6636 65.6353 42.2547 65.0442 42.9984 65.0442C43.742 65.0442 44.3331 65.6353 44.3331 66.379Z" fill="white"/>
<path d="M49.1763 59.6668C49.1763 54.8425 53.0853 50.9335 57.9286 50.9335C62.7529 50.9335 66.6619 54.8425 66.6619 59.6668C66.6619 64.5101 62.7529 68.4191 57.9286 68.4191C53.0853 68.4191 49.1763 64.5101 49.1763 59.6668Z" fill="#231F20"/>
<path d="M52.5706 59.6667C52.5706 56.7111 54.9541 54.3085 57.9288 54.3085C60.8843 54.3085 63.2869 56.7111 63.2869 59.6667C63.2869 62.6414 60.8843 65.044 57.9288 65.044C54.9541 65.044 52.5706 62.6414 52.5706 59.6667Z" fill="#E6E6E6"/>
<path d="M55.5261 59.6669C55.5261 58.3512 56.5939 57.2833 57.9287 57.2833C59.2444 57.2833 60.3123 58.3512 60.3123 59.6669C60.3123 61.0016 59.2444 62.0695 57.9287 62.0695C56.5939 62.0695 55.5261 61.0016 55.5261 59.6669Z" fill="#231F20"/>
<path d="M87.8279 59.6668C87.8279 54.8425 91.7369 50.9335 96.5612 50.9335C101.405 50.9335 105.314 54.8425 105.314 59.6668C105.314 64.5101 101.405 68.4191 96.5612 68.4191C91.7369 68.4191 87.8279 64.5101 87.8279 59.6668Z" fill="#231F20"/>
<path d="M91.2029 59.6667C91.2029 56.7111 93.6055 54.3085 96.5611 54.3085C99.5357 54.3085 101.938 56.7111 101.938 59.6667C101.938 62.6414 99.5357 65.044 96.5611 65.044C93.6055 65.044 91.2029 62.6414 91.2029 59.6667Z" fill="#E6E6E6"/>
<path d="M94.1775 59.6669C94.1775 58.3512 95.2453 57.2833 96.561 57.2833C97.8958 57.2833 98.9636 58.3512 98.9636 59.6669C98.9636 61.0016 97.8958 62.0695 96.561 62.0695C95.2453 62.0695 94.1775 61.0016 94.1775 59.6669Z" fill="#231F20"/>
<path d="M54.8395 42.2196H35.0657V41.1327H54.8395V42.2196Z" fill="#1A1A1A"/>
<path d="M54.0959 42.1813C53.867 42.1241 53.581 41.9334 53.2759 41.7046C52.1509 40.8656 52.2081 39.302 53.3522 38.482C54.0387 37.9862 54.973 37.8718 55.7739 38.196L58.4625 39.3401C59.3587 39.7215 60.3312 39.9312 61.3227 39.9694L70.5327 40.16C71.5624 40.1791 72.1154 41.2469 71.4671 41.9715L70.5327 42.4482L54.0959 42.1813Z" fill="#1A1A1A"/>
<g style="mix-blend-mode:multiply" opacity="0.5">
<path d="M70.8569 42.5055C70.4374 40.9037 67.6725 41.3042 61.5325 41.0372C57.2612 40.8465 55.0683 39.1304 54.1531 38.1007C53.867 38.177 53.581 38.2914 53.3522 38.4821C52.2081 39.302 52.1509 40.8656 53.2759 41.7046C53.581 41.9334 53.867 42.1241 54.0959 42.1813L70.5327 42.4483L70.8569 42.5055Z" fill="#1A1A1A"/>
</g>
<path d="M40.5193 41.8954L50.6827 47.8256" stroke="#1A1A1A" stroke-width="0.572049" stroke-miterlimit="10"/>
<path d="M98.8683 54.8806L92.8046 59.6668H46.3733C46.3733 59.6668 43.8944 46.5287 52.8565 42.4862C53.2951 42.2765 53.7909 42.1811 54.2676 42.1811H68.9311C69.3125 42.1811 69.5985 42.5625 69.4841 42.9248C68.9883 44.4693 68.054 48.1304 68.8167 51.1242C69.3887 53.3361 71.429 54.8997 73.7554 54.9569C76.5584 55.0332 79.5521 55.0141 81.7831 54.976C84.0141 54.9378 86.1307 54.0035 87.6752 52.4208C89.1054 50.9144 89.9253 48.9313 89.9253 46.8719V21.5683C89.9253 20.9581 90.4211 20.4623 91.0503 20.4623C91.5652 20.4623 92.0228 20.8246 92.1372 21.3204L98.8683 54.8806Z" fill="#FFCC35"/>
<path d="M68.0731 59.6671H47.7654C47.7654 54.061 52.3227 49.5228 57.9288 49.5228C63.5349 49.5228 68.0731 54.061 68.0731 59.6671Z" fill="#FFC20C"/>
<path d="M106.724 59.6671H86.4167C86.4167 54.061 90.955 49.5228 96.5611 49.5228C102.186 49.5228 106.724 54.061 106.724 59.6671Z" fill="#FFC20C"/>
<g style="mix-blend-mode:multiply" opacity="0.5">
<path d="M68.0541 59.6669C59.092 58.4846 53.9817 54.7472 51.3312 51.9633C49.1574 53.8129 47.7654 56.5778 47.7654 59.6669H68.0541Z" fill="#FFC20C"/>
</g>
<g style="mix-blend-mode:multiply" opacity="0.5">
<path d="M90.1351 51.8297C87.8659 53.6793 86.4167 56.5014 86.4167 59.6668H106.724C106.724 59.6668 106.724 59.6604 106.724 59.6477C97.7815 58.3892 92.7284 54.5946 90.1351 51.8297Z" fill="#FFC20C"/>
</g>
<path d="M94.0249 27.7655H92.3087C91.546 27.7655 90.9167 27.1362 90.9167 26.3735V21.1869C90.9167 20.4242 91.546 19.7949 92.3087 19.7949H94.0249C94.7876 19.7949 95.4169 20.4242 95.4169 21.1869V26.3735C95.4169 27.1362 94.7876 27.7655 94.0249 27.7655Z" fill="#FFCC35"/>
<path d="M95.417 26.5071V21.0535C96.828 21.0535 97.9721 22.1976 97.9721 23.6087V23.9328C97.9721 25.363 96.828 26.5071 95.417 26.5071Z" fill="white"/>
<g style="mix-blend-mode:multiply">
<path d="M97.667 25.0961C96.5802 24.8291 95.8746 24.1236 95.417 23.3608V26.5071C96.3895 26.5071 97.2285 25.9351 97.667 25.0961Z" fill="#E6E6E6"/>
</g>
<path d="M85.0056 13.6933H87.4082C88.3044 13.6933 89.1053 14.3226 89.296 15.1997L91.2028 23.5707" stroke="#FFCC35" stroke-width="0.572049" stroke-miterlimit="10"/>
<path d="M86.9697 13.6935C86.9697 15.2571 86.1498 16.5156 85.1391 16.5156C84.1285 16.5156 83.3086 15.2571 83.3086 13.6935C83.3086 12.1299 84.1285 10.8714 85.1391 10.8714C86.1498 10.8714 86.9697 12.1299 86.9697 13.6935Z" fill="#FFCC35"/>
<path d="M86.4549 23.3802L89.0673 21.1301C89.2579 20.9776 89.5249 20.9394 89.7537 21.0538L91.9466 22.1407C92.2517 22.2933 92.4233 22.6174 92.3851 22.9607L92.3279 23.4564C92.2898 23.8569 91.9656 24.162 91.5652 24.162L89.3342 24.2382L88.2473 25.4014C88.0376 25.6112 87.7706 25.7446 87.4655 25.7637C87.0269 25.7828 86.4358 25.8018 86.3214 25.7446C86.1498 25.6493 86.4549 23.3802 86.4549 23.3802Z" fill="#FF8773"/>
<path d="M88.0757 23.4944C88.0757 22.3884 88.991 21.4731 90.0969 21.4731C91.2219 21.4731 92.1182 22.3884 92.1182 23.4944C92.1182 24.6194 91.2219 25.5156 90.0969 25.5156C88.991 25.5156 88.0757 24.6194 88.0757 23.4944Z" fill="#231F20"/>
<path d="M88.9529 23.4945C88.9529 22.8652 89.4677 22.3504 90.097 22.3504C90.7453 22.3504 91.2602 22.8652 91.2602 23.4945C91.2602 24.1238 90.7453 24.6577 90.097 24.6577C89.4677 24.6577 88.9529 24.1238 88.9529 23.4945Z" fill="#FFCC35"/>
<path d="M79.5903 49.3892L78.2174 53.6796L75.7576 53.1647L76.8826 48.1116L79.5903 49.3892Z" fill="#FF8773"/>
<path d="M75.1665 55.5481C75.1665 55.5481 75.2237 53.584 75.872 52.6116C76.9017 53.0311 78.6179 52.5734 78.6179 52.5734C78.6179 52.5734 79.762 53.7366 81.3065 54.2705C82.851 54.8044 84.3574 54.8426 84.3384 55.6816C83.2515 56.3489 77.0733 56.6731 75.1665 55.5481Z" fill="#1A1A1A"/>
<path d="M84.3384 55.6816C83.2515 56.349 77.0733 56.6732 75.1665 55.5482" stroke="white" stroke-width="0.514844" stroke-miterlimit="10" stroke-linecap="round"/>
<path d="M80.0478 53.3554C80.0478 53.3554 79.9144 53.8703 79.1326 54.0419" stroke="white" stroke-width="0.266956" stroke-miterlimit="10" stroke-linecap="round"/>
<path d="M79.5332 52.8978C79.5332 52.8978 79.4188 53.3936 78.6179 53.5652" stroke="white" stroke-width="0.266956" stroke-miterlimit="10" stroke-linecap="round"/>
<path d="M66.4332 2.70984C66.4332 2.70984 63.1153 7.49598 67.6917 11.0045C68.4544 7.91548 69.1981 4.19717 69.1981 4.12089C69.1981 4.04462 66.4332 2.70984 66.4332 2.70984Z" fill="black" stroke="black" stroke-width="0.0953415" stroke-miterlimit="10"/>
<path d="M70.2659 14.9327L66.948 14.6467L67.7679 9.3457L70.3994 9.57452L70.2659 14.9327Z" fill="#FF8773"/>
<g style="mix-blend-mode:multiply" opacity="0.7">
<path d="M67.6917 9.86055C68.1302 11.2525 69.1027 12.3394 70.3231 12.8352L70.3994 9.57452L67.7679 9.3457L67.6917 9.86055Z" fill="#FF8773"/>
</g>
<path d="M67.0623 7.01955C67.1386 4.25465 69.1408 2.08086 71.5243 2.13807C73.9079 2.21434 75.7765 4.5216 75.7003 7.28651C75.6049 10.0514 73.6218 12.2252 71.2192 12.168C68.8357 12.0917 66.9861 9.80352 67.0623 7.01955Z" fill="#FF8773"/>
<path d="M78.1221 21.7974L77.4356 24.7911C77.1686 24.7339 76.9017 24.6577 76.6538 24.5814C76.3487 24.467 76.0627 24.3526 75.7957 24.2191C74.6898 23.7042 73.7554 22.9415 72.9736 22.0834C72.1918 21.2254 71.5626 20.2529 71.0858 19.2804C70.571 18.3079 70.1896 17.3164 69.8655 16.3439L73.4885 15.2379C73.9652 17.0113 74.5563 18.6511 75.5478 19.8715C76.0245 20.5008 76.6157 21.0156 77.2449 21.3779C77.3975 21.4732 77.5691 21.5495 77.7216 21.6067C77.7407 21.6258 78.1221 21.7974 78.1221 21.7974Z" fill="#FF6D5A"/>
<path d="M75.3762 18.1553L71.0095 20.6342L69.2743 17.5833C68.5879 16.382 69.0074 14.8565 70.2087 14.1701C71.41 13.4836 72.9354 13.9031 73.6219 15.1044L75.3762 18.1553Z" fill="white"/>
<g style="mix-blend-mode:multiply">
<path d="M69.2744 17.583L71.0097 20.6339L74.8424 18.4411C74.0796 16.3245 72.3063 14.7418 70.1706 14.1888C68.9884 14.8944 68.588 16.4008 69.2744 17.583Z" fill="#E6E6E6"/>
</g>
<path d="M70.6473 35.4884L66.2616 34.2871C65.537 34.1345 65.0413 33.5053 65.0413 32.7616L65.2319 16.9921C65.2701 15.1616 66.8527 13.7124 68.6833 13.884C72.3826 14.2082 75.1284 17.4688 74.8042 21.1681L72.516 34.1155C72.4398 35.0498 71.5435 35.6981 70.6473 35.4884Z" fill="white"/>
<path d="M69.7511 17.4117C69.7511 17.4117 80.048 24.3145 86.455 23.3801C86.8173 25.4014 86.7219 25.7255 86.7219 25.7255C86.7219 25.7255 74.2703 26.4692 67.9778 20.3673C69.7511 17.4117 69.7511 17.4117 69.7511 17.4117Z" fill="#FF8773"/>
<path d="M71.6198 16.9158L67.9396 21.6828L65.3654 19.6997C64.1641 18.7654 63.9353 17.0302 64.8696 15.8289L65.1747 15.4284C66.1091 14.2271 67.8252 13.9983 69.0456 14.9327L71.6198 16.9158Z" fill="white"/>
<path d="M75.3761 8.62122C73.2405 9.5365 70.7997 8.33519 70.1705 7.99197C70.0942 7.93476 69.9798 7.9729 69.9607 8.06824C69.465 9.956 69.9607 11.3098 70.4756 12.1298C70.501 12.1679 70.5328 12.1933 70.5709 12.2061C70.7616 12.2315 70.9586 12.2506 71.162 12.2633C73.1642 12.3205 74.8994 10.8713 75.5668 8.79283C75.605 8.67843 75.4905 8.56401 75.3761 8.62122Z" fill="white"/>
<path d="M66.9099 6.50468C67.5201 6.83519 68.1048 7.19749 68.6642 7.59157C68.9438 7.78225 69.2108 7.992 69.465 8.22082C69.732 8.43057 69.9799 8.69753 69.9608 9.04076C69.9608 9.26958 70.285 9.26958 70.304 9.04076C70.3231 8.2971 69.5413 7.83946 69.0265 7.43902C68.4036 6.98138 67.7489 6.57459 67.0624 6.21865C66.8718 6.12331 66.7192 6.40933 66.9099 6.50468Z" fill="white"/>
<g style="mix-blend-mode:multiply" opacity="0.5">
<path d="M69.8463 8.65936C69.5794 10.223 70.0179 11.4052 70.4756 12.1298C70.501 12.1679 70.5328 12.1934 70.5709 12.2061C70.7616 12.2315 70.9587 12.2506 71.162 12.2633C72.1345 12.2823 73.0307 11.9582 73.7935 11.3861C71.3909 11.6722 70.1133 9.25048 69.8463 8.65936Z" fill="#FFC20C"/>
</g>
<path d="M77.3975 1.62305C77.0162 1.39423 76.5013 1.43237 76.1962 1.69932C75.9102 0.936592 75.014 0.51709 74.2703 0.51709C74.2576 0.51709 74.2513 0.51709 74.2513 0.51709C73.6983 0.51709 73.2788 0.707773 73.0118 1.051C72.4588 0.841252 71.8677 0.726841 71.2766 0.688705C69.5414 0.574295 67.6346 1.03193 66.5477 2.50019C66.0328 3.16758 65.7277 3.98752 65.5561 4.80746C65.4036 5.55112 65.232 6.54267 65.7849 7.17193C66.3379 7.80118 67.0625 7.59143 67.5392 7.00031C68.1303 6.23758 68.0541 4.82653 68.9503 4.44516C69.4842 4.19727 70.5902 4.55957 71.3338 4.73118C71.372 4.75025 71.4673 4.76932 71.5054 4.76932L74.3847 4.61678C74.4992 4.63584 76.978 4.80746 77.7217 2.70994C77.8933 2.23324 77.7598 1.8328 77.3975 1.62305Z" fill="black"/>
<path d="M67.6535 7.3053C67.787 8.0299 67.5009 8.67822 67.0052 8.77356C66.5284 8.84984 66.0327 8.33499 65.8992 7.6104C65.7848 6.8858 66.0708 6.21841 66.5475 6.14214C67.0433 6.04679 67.5391 6.58071 67.6535 7.3053Z" fill="#FF8773"/>
<g style="mix-blend-mode:multiply">
<path d="M66.2616 6.80946C66.3188 6.69505 66.4332 6.63784 66.5476 6.59971C66.6811 6.58064 66.8146 6.61877 66.9099 6.69505C67.1769 6.86666 67.2341 7.20989 67.2341 7.49592C67.2341 7.59126 67.3676 7.59126 67.3676 7.49592C67.3676 7.13362 67.2722 6.73318 66.9481 6.5425C66.662 6.38995 66.2616 6.46623 66.1472 6.79039C66.1091 6.86666 66.2425 6.9048 66.2616 6.80946Z" fill="#FF8773"/>
<path d="M66.8338 6.52362C66.7193 6.58083 66.624 6.6571 66.5668 6.77151C66.5096 6.90499 66.4715 7.03847 66.4524 7.17194C66.4524 7.21008 66.4715 7.24822 66.5096 7.26728C66.5287 7.26728 66.5859 7.24822 66.5859 7.21008C66.624 7.0194 66.6621 6.73337 66.8719 6.6571C66.91 6.6571 66.9291 6.61896 66.9291 6.58083C66.91 6.54269 66.8719 6.52362 66.8338 6.52362Z" fill="#FF8773"/>
</g>
<path d="M71.7532 6.94333C71.7342 7.15308 71.6198 7.30563 71.5054 7.28656C71.3719 7.28656 71.2956 7.11494 71.3147 6.90519C71.3337 6.69544 71.4481 6.52382 71.5626 6.54289C71.696 6.54289 71.7723 6.73358 71.7532 6.94333Z" fill="black" stroke="black" stroke-width="0.0762732" stroke-miterlimit="10"/>
<path d="M75.1093 7.07687C75.0902 7.28662 74.9758 7.43917 74.8423 7.4201C74.7279 7.4201 74.6325 7.22942 74.6516 7.03873C74.6707 6.82898 74.7851 6.65737 74.9186 6.67644C75.033 6.67644 75.1283 6.86712 75.1093 7.07687Z" fill="black" stroke="black" stroke-width="0.0762732" stroke-miterlimit="10"/>
<path d="M71.0097 6.1994C71.1241 6.06592 71.2957 5.98964 71.4864 6.00871C71.658 6.00871 71.8105 6.10405 71.925 6.21846C72.0012 6.3138 72.1156 6.18033 72.0394 6.10405C71.9059 5.95151 71.6961 5.85617 71.4864 5.8371C71.2576 5.8371 71.0478 5.91337 70.8953 6.06592C70.819 6.14219 70.9334 6.27567 71.0097 6.1994Z" fill="#1A1A1A"/>
<path d="M74.3084 6.21857C74.4228 6.10416 74.5944 6.02789 74.766 6.02789C74.9376 6.04696 75.1092 6.12323 75.2236 6.25671C75.2808 6.33298 75.4143 6.21857 75.338 6.1423C75.1855 5.97068 74.9948 5.87534 74.766 5.87534C74.5562 5.85627 74.3465 5.95162 74.1749 6.10416C74.0986 6.18044 74.2321 6.29485 74.3084 6.21857Z" fill="#1A1A1A"/>
<path d="M65.0603 31.0645L81.4972 33.1238C84.0333 33.3526 85.635 36.0031 84.6435 38.3676L79.2853 51.1052H76.1199L78.3509 40.6367C78.4653 40.141 78.0649 39.9503 77.5501 39.9503L65.5752 40.2172C65.0985 40.2363 64.6408 40.0456 64.3357 39.6833C63.3632 38.5202 61.7615 35.6027 65.0603 31.0645Z" fill="#1A1A1A"/>
<path d="M79.3424 51.2388L76.0817 51.1053C75.891 51.0863 75.7576 50.9337 75.7576 50.743V50.6286C75.7766 50.4379 75.9292 50.2854 76.1199 50.2854L79.3805 50.4189C79.5712 50.4379 79.7047 50.5905 79.7047 50.7812V50.9147C79.6856 51.1053 79.5331 51.2388 79.3424 51.2388Z" fill="#1A1A1A"/>
<path d="M82.9272 32.5326L66.3759 31.6936C63.0771 36.2128 64.8123 37.948 65.7848 39.1112C66.0899 39.4735 66.5475 39.6642 67.0242 39.6451L78.9991 39.3781C79.514 39.3781 79.8953 39.5497 79.7809 40.0646L77.7215 49.7132H77.569C77.3783 49.7132 77.2067 49.8466 77.2067 50.0373V50.1708C77.1876 50.3615 77.3402 50.514 77.5309 50.5331H77.6453L77.3211 52.0395C76.8063 52.8022 76.6537 54.1561 76.6156 54.7281C76.5202 54.709 76.4249 54.7663 76.3868 54.8425C76.3105 54.976 76.3486 55.1285 76.463 55.2048C77.4164 55.7578 79.3233 55.9676 81.192 55.9676C83.2704 55.9676 85.3107 55.7006 85.9209 55.3383C86.0353 55.262 86.0735 55.0904 85.9972 54.976C85.94 54.8807 85.8256 54.8425 85.7302 54.8616C85.4442 54.2514 84.1094 54.1751 82.7365 53.6984C82.2789 53.5268 81.8403 53.3171 81.478 53.0882C81.5733 52.9357 81.6115 52.8213 81.6115 52.8213C81.6305 52.745 81.5733 52.6687 81.5161 52.6687C81.4399 52.6497 81.3827 52.6878 81.3636 52.7641C81.3636 52.7641 81.3255 52.8404 81.2492 52.9357C81.1221 52.8594 81.0076 52.7768 80.9059 52.6878C81.0585 52.5162 81.0966 52.3636 81.0966 52.3446C81.1157 52.2874 81.0776 52.2111 81.0013 52.192C80.9441 52.173 80.8678 52.2111 80.8487 52.2874C80.8487 52.3064 80.8106 52.4018 80.6962 52.5353C80.2958 52.2302 80.0669 52.0013 80.0669 52.0013C80.0542 52.0013 80.0352 52.0013 80.0097 52.0013L80.4483 50.6475L80.7725 50.6666C80.9632 50.6666 81.1348 50.514 81.1348 50.3233L81.1538 50.2089C81.1538 50.0754 81.0776 49.9801 80.9822 49.9038L86.0735 37.7764C87.065 35.4119 85.4823 32.7805 82.9272 32.5326Z" fill="#1A1A1A"/>
<path d="M79.5903 49.3892L78.2174 53.6796L75.7576 53.1647L76.8826 48.1116L79.5903 49.3892Z" fill="#FF8773"/>
<path d="M75.1665 55.5481C75.1665 55.5481 75.2237 53.584 75.872 52.6116C76.9017 53.0311 78.6179 52.5734 78.6179 52.5734C78.6179 52.5734 79.762 53.7366 81.3065 54.2705C82.851 54.8044 84.3574 54.8426 84.3384 55.6816C83.2515 56.3489 77.0733 56.6731 75.1665 55.5481Z" fill="#262626"/>
<path d="M84.3384 55.6816C83.2515 56.349 77.0733 56.6732 75.1665 55.5482" stroke="white" stroke-width="0.514844" stroke-miterlimit="10" stroke-linecap="round"/>
<path d="M80.0478 53.3554C80.0478 53.3554 79.9144 53.8703 79.1326 54.0419" stroke="white" stroke-width="0.266956" stroke-miterlimit="10" stroke-linecap="round"/>
<path d="M79.5332 52.8978C79.5332 52.8978 79.4188 53.3936 78.6179 53.5652" stroke="white" stroke-width="0.266956" stroke-miterlimit="10" stroke-linecap="round"/>
<path d="M65.0603 31.0645L81.4972 33.1238C84.0333 33.3526 85.635 36.0031 84.6435 38.3676L79.2853 51.1052H76.1199L78.3509 40.6367C78.4653 40.141 78.0649 39.9503 77.5501 39.9503L65.5752 40.2172C65.0985 40.2363 64.6408 40.0456 64.3357 39.6833C63.3632 38.5202 61.7615 35.6027 65.0603 31.0645Z" fill="#262626"/>
<path d="M79.3424 51.2388L76.0817 51.1053C75.891 51.0863 75.7576 50.9337 75.7576 50.743V50.6286C75.7766 50.4379 75.9292 50.2854 76.1199 50.2854L79.3805 50.4189C79.5712 50.4379 79.7047 50.5905 79.7047 50.7812V50.9147C79.6856 51.1053 79.5331 51.2388 79.3424 51.2388Z" fill="#262626"/>
<g style="mix-blend-mode:multiply">
<path d="M65.6704 14.9325C66.0518 14.5702 66.6238 14.4177 67.1577 14.4368C67.7107 14.4368 68.2446 14.6084 68.7213 14.8372C69.198 15.0851 69.6557 15.3902 70.0561 15.7334C70.4566 16.0576 70.857 16.4008 71.2384 16.7822C70.7807 16.4961 70.3421 16.2101 69.9226 15.905C69.4841 15.5999 69.0646 15.333 68.6069 15.1042C68.1493 14.8753 67.6535 14.7037 67.1577 14.6656C66.8908 14.6274 66.6429 14.6274 66.395 14.6847C66.1471 14.7228 65.8992 14.7991 65.6704 14.9325Z" fill="#E6E6E6"/>
</g>
<g style="mix-blend-mode:multiply">
<path d="M65.1746 19.433C65.6703 19.6999 66.1089 20.005 66.5284 20.3483C66.9479 20.6915 67.3483 21.0538 67.6916 21.4924C67.1958 21.2254 66.7572 20.9203 66.3377 20.5771C65.9182 20.2339 65.5178 19.8716 65.1746 19.433Z" fill="#E6E6E6"/>
</g>
<path d="M65.0603 31.0645C65.1747 31.0835 73.0118 31.3314 73.0118 31.3314L72.8402 32.3039L65.0603 31.6937V31.0645Z" fill="#262626"/>
<g style="mix-blend-mode:multiply">
<path d="M55.5642 51.4104H60.3122" stroke="#FFC20C" stroke-width="0.286025" stroke-miterlimit="10" stroke-linecap="round"/>
</g>
<g style="mix-blend-mode:multiply">
<path d="M54.8396 52.4398H61.0368" stroke="#FFC20C" stroke-width="0.286025" stroke-miterlimit="10" stroke-linecap="round"/>
</g>
<g style="mix-blend-mode:multiply">
<path d="M53.8291 53.4506H62.0285" stroke="#FFC20C" stroke-width="0.286025" stroke-miterlimit="10" stroke-linecap="round"/>
</g>
<path d="M51.6362 41.1325H36.4006V24.9435H51.6362V41.1325Z" fill="#FFC20C"/>
<path d="M51.6362 41.1325H36.4006V24.9435H51.6362V41.1325Z" fill="#FFC20C"/>
<path d="M45.1148 26.9838H43.0745V24.9435H45.1148V26.9838Z" fill="white"/>
<g style="mix-blend-mode:multiply" opacity="0.5">
<path d="M51.6362 26.1258C48.3755 36.9947 38.7651 39.6071 36.4006 40.0075V41.1325H51.6362V26.1258Z" fill="#FFC20C"/>
</g>
<path d="M71.3909 42.6009H52.8184C52.6086 42.6009 52.4561 42.4484 52.4561 42.2386C52.4561 42.0479 52.6086 41.8954 52.8184 41.8954H71.3909C71.5816 41.8954 71.7532 42.0479 71.7532 42.2386C71.7532 42.4484 71.5816 42.6009 71.3909 42.6009Z" fill="black"/>
<path d="M44.0278 24.1618V41.3423" stroke="#1A1A1A" stroke-width="0.438571" stroke-miterlimit="10" stroke-linecap="round"/>
</svg>
