<svg width="428" height="452" viewBox="0 0 428 452" fill="none" xmlns="http://www.w3.org/2000/svg">
<path d="M119.712 161.678H25.3196C21.3015 161.678 18.0488 164.931 18.0488 168.949V447.088H126.919V168.949C126.919 164.931 123.666 161.678 119.712 161.678Z" fill="#F5F5F5"/>
<path d="M41.1368 209.831H27.1055V178.579H41.1368V209.831Z" fill="#EBEBEB"/>
<path d="M117.862 209.831H103.831V178.579H117.862V209.831Z" fill="#EBEBEB"/>
<path d="M66.712 209.831H52.6807V178.579H66.712V209.831Z" fill="#EBEBEB"/>
<path d="M92.2872 209.831H78.2559V178.579H92.2872V209.831Z" fill="#EBEBEB"/>
<path d="M41.1368 259.132H27.1055V227.88H41.1368V259.132Z" fill="#EBEBEB"/>
<path d="M117.862 259.132H103.831V227.88H117.862V259.132Z" fill="#EBEBEB"/>
<path d="M66.712 259.132H52.6807V227.88H66.712V259.132Z" fill="#EBEBEB"/>
<path d="M92.2872 259.132H78.2559V227.88H92.2872V259.132Z" fill="#EBEBEB"/>
<path d="M41.1368 308.433H27.1055V277.181H41.1368V308.433Z" fill="#EBEBEB"/>
<path d="M117.862 308.433H103.831V277.181H117.862V308.433Z" fill="#EBEBEB"/>
<path d="M66.712 308.433H52.6807V277.181H66.712V308.433Z" fill="#EBEBEB"/>
<path d="M92.2872 308.433H78.2559V277.181H92.2872V308.433Z" fill="#EBEBEB"/>
<path d="M41.1368 357.734H27.1055V326.482H41.1368V357.734Z" fill="#EBEBEB"/>
<path d="M117.862 357.734H103.831V326.482H117.862V357.734Z" fill="#EBEBEB"/>
<path d="M66.712 357.734H52.6807V326.482H66.712V357.734Z" fill="#EBEBEB"/>
<path d="M92.2872 357.734H78.2559V326.482H92.2872V357.734Z" fill="#EBEBEB"/>
<path d="M41.1368 407.035H27.1055V375.847H41.1368V407.035Z" fill="#EBEBEB"/>
<path d="M117.862 407.035H103.831V375.847H117.862V407.035Z" fill="#EBEBEB"/>
<path d="M66.712 407.035H52.6807V375.847H66.712V407.035Z" fill="#EBEBEB"/>
<path d="M92.2872 407.035H78.2559V375.847H92.2872V407.035Z" fill="#EBEBEB"/>
<path d="M427.636 187.636H360.031C356.778 187.636 354.163 190.251 354.163 193.503V447.088H433.504V193.503C433.504 190.251 430.889 187.636 427.636 187.636Z" fill="#F5F5F5"/>
<path d="M376.932 231.388H364.176V202.943H376.932V231.388Z" fill="#EBEBEB"/>
<path d="M400.211 231.388H387.455V202.943H400.211V231.388Z" fill="#EBEBEB"/>
<path d="M423.49 231.388H410.735V202.943H423.49V231.388Z" fill="#EBEBEB"/>
<path d="M376.932 276.225H364.176V247.78H376.932V276.225Z" fill="#EBEBEB"/>
<path d="M400.211 276.225H387.455V247.78H400.211V276.225Z" fill="#EBEBEB"/>
<path d="M423.49 276.225H410.735V247.78H423.49V276.225Z" fill="#EBEBEB"/>
<path d="M376.932 321.061H364.176V292.616H376.932V321.061Z" fill="#EBEBEB"/>
<path d="M400.211 321.061H387.455V292.616H400.211V321.061Z" fill="#EBEBEB"/>
<path d="M423.49 321.061H410.735V292.616H423.49V321.061Z" fill="#EBEBEB"/>
<path d="M376.932 365.834H364.176V337.452H376.932V365.834Z" fill="#EBEBEB"/>
<path d="M400.211 365.834H387.455V337.452H400.211V365.834Z" fill="#EBEBEB"/>
<path d="M423.49 365.834H410.735V337.452H423.49V365.834Z" fill="#EBEBEB"/>
<path d="M376.932 410.671H364.176V382.289H376.932V410.671Z" fill="#EBEBEB"/>
<path d="M400.211 410.671H387.455V382.289H400.211V410.671Z" fill="#EBEBEB"/>
<path d="M423.49 410.671H410.735V382.289H423.49V410.671Z" fill="#EBEBEB"/>
<path d="M314.939 115.056H205.112C200.456 115.056 196.693 118.819 196.693 123.474V447.088H323.358V123.474C323.358 118.819 319.531 115.056 314.939 115.056Z" fill="#F5F5F5"/>
<path d="M223.544 171.054H207.217V134.7H223.544V171.054Z" fill="#EBEBEB"/>
<path d="M312.835 171.054H296.507V134.7H312.835V171.054Z" fill="#EBEBEB"/>
<path d="M253.265 171.054H236.938V134.7H253.265V171.054Z" fill="#EBEBEB"/>
<path d="M283.05 171.054H266.723V134.7H283.05V171.054Z" fill="#EBEBEB"/>
<path d="M223.544 228.391H207.217V192.037H223.544V228.391Z" fill="#EBEBEB"/>
<path d="M312.835 228.391H296.507V192.037H312.835V228.391Z" fill="#EBEBEB"/>
<path d="M253.265 228.391H236.938V192.037H253.265V228.391Z" fill="#EBEBEB"/>
<path d="M283.05 228.391H266.723V192.037H283.05V228.391Z" fill="#EBEBEB"/>
<path d="M223.544 285.792H207.217V249.438H223.544V285.792Z" fill="#EBEBEB"/>
<path d="M312.835 285.792H296.507V249.438H312.835V285.792Z" fill="#EBEBEB"/>
<path d="M253.265 285.792H236.938V249.438H253.265V285.792Z" fill="#EBEBEB"/>
<path d="M283.05 285.792H266.723V249.438H283.05V285.792Z" fill="#EBEBEB"/>
<path d="M223.544 343.129H207.217V306.839H223.544V343.129Z" fill="#EBEBEB"/>
<path d="M312.835 343.129H296.507V306.839H312.835V343.129Z" fill="#EBEBEB"/>
<path d="M253.265 343.129H236.938V306.839H253.265V343.129Z" fill="#EBEBEB"/>
<path d="M283.05 343.129H266.723V306.839H283.05V343.129Z" fill="#EBEBEB"/>
<path d="M223.544 400.53H207.217V364.176H223.544V400.53Z" fill="#EBEBEB"/>
<path d="M312.835 400.53H296.507V364.176H312.835V400.53Z" fill="#EBEBEB"/>
<path d="M253.265 400.53H236.938V364.176H253.265V400.53Z" fill="#EBEBEB"/>
<path d="M283.05 400.53H266.723V364.176H283.05V400.53Z" fill="#EBEBEB"/>
<path d="M196.693 447.088H126.919V234.003H196.693V447.088Z" fill="#E6E6E6"/>
<path d="M354.163 447.088H323.358V256.772H354.163V447.088Z" fill="#E6E6E6"/>
<path d="M18.0489 447.087H-42.9873V358.116L18.0489 337.452V447.087Z" fill="#E6E6E6"/>
<path d="M414.881 79.7221C424.83 71.3671 445.176 55.1035 427.7 52.8075C410.926 50.5752 386.18 60.3971 378.272 69.0073C378.272 60.7798 374.381 52.8712 359.584 46.5571C336.688 36.7352 333.116 72.3238 334.392 78.893C325.208 74.4922 296.252 75.3214 316.215 87.6944H417.559C417.559 87.6944 438.479 74.6198 414.881 79.7221Z" fill="#F5F5F5"/>
<path d="M-42.3496 122.582C-42.4134 117.798 -42.9236 108.55 -34.5686 107.275C-26.4687 105.999 -20.9837 111.548 -21.9404 116.459C-17.9224 111.803 -12.4374 107.338 -3.18947 103.703C11.097 98.0906 -4.78394 118.372 -8.4831 122.135C-2.55168 119.584 9.05605 120.03 -5.29417 127.11H-47.3881C-47.3881 127.11 -49.6842 119.712 -42.3496 122.582Z" fill="#FAFAFA"/>
<path d="M134.254 66.2651H-1.33984C-1.33984 66.2651 6.56872 56.762 18.8142 59.7596C13.0104 52.3613 9.94899 24.8089 29.274 21.3648C39.1597 19.579 50.7674 37.5009 50.9587 46.8763C55.8059 24.4262 69.1994 -4.08288 89.8 1.52965C110.337 7.0784 94.3921 47.833 94.3921 47.833C94.3921 47.833 114.163 19.005 130.555 31.8246C140.313 39.4142 122.008 56.8896 122.008 56.8896C122.008 56.8896 144.458 56.762 134.254 66.2651Z" fill="#F5F5F5"/>
<g style="mix-blend-mode:multiply" opacity="0.4">
<path d="M19.9396 400.504C17.9494 376.87 11.1701 361.134 1.77863 338.682C-7.55065 316.292 -14.7031 292.035 -7.17748 269.148C2.08959 240.911 33.3116 219.703 67.8921 212.55C102.41 205.398 139.541 210.871 172.069 222.75C199.31 232.639 224.624 247.006 253.856 251.795C281.47 256.273 310.64 251.795 337.757 258.077C377.437 267.22 405.923 300.432 405.985 334.266C406.047 368.1 379.428 400.317 342.359 415.182C330.48 419.909 317.295 423.143 304.234 421.712C283.896 419.598 267.103 406.972 246.89 404.298C221.701 400.939 198.067 413.565 176.485 424.76C157.64 434.525 137.986 443.792 116.404 448.456C94.8848 453.121 70.9396 452.81 51.286 444.165C31.6323 435.52 17.4518 417.483 20.064 399.322" fill="white"/>
</g>
<path d="M405.985 324.253L408.162 328.233L412.143 330.41L408.162 332.587L405.985 336.567L403.808 332.587L399.828 330.41L403.808 328.233L405.985 324.253Z" fill="white"/>
<path d="M24.2317 251.982L27.6524 258.139L33.8097 261.56L27.6524 264.919L24.2317 271.076L20.8731 264.919L14.7158 261.56L20.8731 258.139L24.2317 251.982Z" fill="white"/>
<path d="M379.304 297.696H374.515C372.4 297.696 370.658 296.016 370.658 293.902V289.113C370.658 286.998 372.4 285.256 374.515 285.256H379.304C381.418 285.256 383.097 286.998 383.097 289.113V293.902C383.097 296.016 381.418 297.696 379.304 297.696Z" fill="#FFC20C"/>
<path d="M358.281 287.744H352C349.263 287.744 347.024 285.567 347.024 282.831V276.549C347.024 273.812 349.263 271.573 352 271.573H358.281C361.018 271.573 363.195 273.812 363.195 276.549V282.831C363.195 285.567 361.018 287.744 358.281 287.744Z" fill="#FFE79E"/>
<path d="M22.9254 428.056H20.0022C18.7583 428.056 17.7632 427.061 17.7632 425.755V422.894C17.7632 421.588 18.7583 420.593 20.0022 420.593H22.9254C24.1693 420.593 25.2266 421.588 25.2266 422.894V425.755C25.2266 427.061 24.1693 428.056 22.9254 428.056Z" fill="#FFC20C"/>
<path d="M33.4363 416.115H29.6424C28.0253 416.115 26.7192 414.809 26.7192 413.13V409.398C26.7192 407.719 28.0253 406.413 29.6424 406.413H33.4363C35.0534 406.413 36.4217 407.719 36.4217 409.398V413.13C36.4217 414.809 35.0534 416.115 33.4363 416.115Z" fill="#FFE79E"/>
<g style="mix-blend-mode:multiply">
<path d="M-41.1982 376.248H-1.20676" stroke="white" stroke-width="2.98537" stroke-miterlimit="10" stroke-linecap="round"/>
</g>
<g style="mix-blend-mode:multiply">
<path d="M6.75439 376.248H31.7568" stroke="white" stroke-width="2.98537" stroke-miterlimit="10" stroke-linecap="round"/>
</g>
<g style="mix-blend-mode:multiply">
<path d="M-49.7188 363.747H10.2374" stroke="white" stroke-width="2.98537" stroke-miterlimit="10" stroke-linecap="round"/>
</g>
<g style="mix-blend-mode:multiply">
<path d="M16.27 363.747H24.231" stroke="white" stroke-width="2.98537" stroke-miterlimit="10" stroke-linecap="round"/>
</g>
<g style="mix-blend-mode:multiply">
<path d="M-33.7349 351.245H7.25175" stroke="white" stroke-width="2.98537" stroke-miterlimit="10" stroke-linecap="round"/>
</g>
<g style="mix-blend-mode:multiply">
<path d="M-35.7251 341.295H16.2701" stroke="white" stroke-width="2.98537" stroke-miterlimit="10" stroke-linecap="round"/>
</g>
<path d="M13.347 308.02C13.347 309.761 11.9787 311.129 10.2372 311.129C8.55793 311.129 7.12744 309.761 7.12744 308.02C7.12744 306.278 8.55793 304.91 10.2372 304.91C11.9787 304.91 13.347 306.278 13.347 308.02Z" fill="white"/>
<path d="M101.727 442.112C101.727 444.849 99.4876 447.088 96.751 447.088C93.9522 447.088 91.7754 444.849 91.7754 442.112C91.7754 439.376 93.9522 437.137 96.751 437.137C99.4876 437.137 101.727 439.376 101.727 442.112Z" fill="white"/>
<path d="M237.063 243.959V389.869H51.2236V243.959C51.2236 240.351 54.1468 237.428 57.7541 237.428H230.532C234.14 237.428 237.063 240.351 237.063 243.959Z" fill="#FFE79E"/>
<g style="mix-blend-mode:multiply">
<path d="M237.063 389.868H51.2236V346.891H237.063V389.868Z" fill="#FFE79E"/>
</g>
<path d="M237.063 389.869H48.487C46.559 389.869 44.9419 388.314 44.9419 386.324C44.9419 384.396 46.559 382.841 48.487 382.841H237.063V389.869Z" fill="black"/>
<path d="M135.125 389.868H61.2993C61.2993 369.468 77.781 352.925 98.181 352.925C118.581 352.925 135.125 369.468 135.125 389.868Z" fill="#231F20"/>
<path d="M71.811 389.869C71.811 375.315 83.6281 363.498 98.1818 363.498C112.735 363.498 124.553 375.315 124.553 389.869C124.553 404.423 112.735 416.24 98.1818 416.24C83.6281 416.24 71.811 404.423 71.811 389.869Z" fill="black"/>
<path d="M83.2544 389.869C83.2544 381.597 89.9715 374.942 98.1812 374.942C106.453 374.942 113.17 381.597 113.17 389.869C113.17 398.141 106.453 404.795 98.1812 404.795C89.9715 404.795 83.2544 398.141 83.2544 389.869Z" fill="#FFE79E"/>
<path d="M86.1152 389.869C86.1152 383.214 91.5262 377.741 98.1811 377.741C104.898 377.741 110.309 383.214 110.309 389.869C110.309 396.524 104.898 401.935 98.1811 401.935C91.5262 401.935 86.1152 396.524 86.1152 389.869Z" stroke="#FFC20C" stroke-width="0.995122" stroke-miterlimit="10"/>
<path d="M361.329 344.777V389.868H237.063V261.56H279.853C299.009 261.56 316.237 273.252 323.265 291.04L333.154 316.292L349.201 324.688C356.664 328.606 361.329 336.381 361.329 344.777Z" fill="#FFC20C"/>
<path d="M365.061 389.869H237.063V382.841H365.061C367.051 382.841 368.606 384.396 368.606 386.324C368.606 388.314 367.051 389.869 365.061 389.869Z" fill="black"/>
<path d="M355.171 389.868H281.346C281.346 369.468 297.827 352.925 318.227 352.925C338.627 352.925 355.171 369.468 355.171 389.868Z" fill="#231F20"/>
<path d="M291.857 389.869C291.857 375.315 303.674 363.498 318.228 363.498C332.782 363.498 344.599 375.315 344.599 389.869C344.599 404.423 332.782 416.24 318.228 416.24C303.674 416.24 291.857 404.423 291.857 389.869Z" fill="black"/>
<path d="M303.301 389.869C303.301 381.597 310.018 374.942 318.228 374.942C326.5 374.942 333.217 381.597 333.217 389.869C333.217 398.141 326.5 404.795 318.228 404.795C310.018 404.795 303.301 398.141 303.301 389.869Z" fill="#FFE79E"/>
<path d="M306.162 389.869C306.162 383.214 311.573 377.741 318.228 377.741C324.945 377.741 330.356 383.214 330.356 389.869C330.356 396.524 324.945 401.935 318.228 401.935C311.573 401.935 306.162 396.524 306.162 389.869Z" stroke="#FFC20C" stroke-width="0.995122" stroke-miterlimit="10"/>
<path d="M270.835 332.462H256.095C254.975 332.462 254.042 331.529 254.042 330.41C254.042 329.29 254.975 328.357 256.095 328.357H270.835C271.955 328.357 272.888 329.29 272.888 330.41C272.888 331.529 271.955 332.462 270.835 332.462Z" fill="#231F20"/>
<path d="M254.042 321.267V272.693H290.24C296.708 272.693 302.555 276.424 305.291 282.209L321.649 316.727C322.644 318.842 321.089 321.267 318.788 321.267H254.042Z" fill="white"/>
<mask id="mask0_522_2523" style="mask-type:luminance" maskUnits="userSpaceOnUse" x="254" y="272" width="68" height="50">
<path d="M254.036 321.242V272.705H290.246C296.677 272.705 302.53 276.412 305.285 282.221L321.624 316.739C322.612 318.835 321.089 321.242 318.769 321.242H254.036Z" fill="white"/>
</mask>
<g mask="url(#mask0_522_2523)">
<path d="M307.779 321.267H302.555V305.967C302.555 304.474 303.674 303.355 305.167 303.355C306.597 303.355 307.779 304.474 307.779 305.967V321.267Z" fill="#1A1A1A"/>
<path d="M300.875 323.195L300.191 329.975C299.61 329.892 299.03 329.788 298.449 329.664C297.765 329.477 297.143 329.353 296.521 329.104C293.971 328.171 291.795 326.741 289.929 325.061C288.063 323.382 286.508 321.454 285.202 319.464C283.958 317.411 282.901 315.359 281.968 313.369L289.556 310.134C290.924 313.866 292.603 317.287 295.029 319.712C296.21 320.956 297.579 321.952 299.009 322.636C299.382 322.76 299.756 322.884 300.129 323.009L300.875 323.195Z" fill="#FF8773"/>
<g style="mix-blend-mode:multiply" opacity="0.2">
<path d="M289.929 325.061C290.509 325.6 291.131 326.098 291.795 326.554V319.09C291.795 315.794 290.737 312.809 288.934 310.383L281.968 313.368C282.901 315.359 283.958 317.411 285.202 319.464C286.508 321.454 288.063 323.382 289.929 325.061Z" fill="#FF8773"/>
</g>
<path d="M279.791 306.402H272.514L273.323 294.772H279.045L279.791 306.402Z" fill="#FF8773"/>
<g style="mix-blend-mode:multiply" opacity="0.7">
<path d="M273.198 295.892C274.442 298.815 276.743 301.054 279.48 301.862L279.045 294.772H273.323L273.198 295.892Z" fill="#FF8773"/>
</g>
<path d="M267.663 286.811C267.663 286.811 267.289 295.145 273.82 296.7C272.576 293.155 272.638 286.811 272.638 286.811H267.663Z" fill="black"/>
<path d="M271.333 289.921C270.96 283.888 274.878 278.788 280.04 278.477C285.264 278.166 289.742 282.769 290.053 288.802C290.427 294.835 286.508 299.935 281.346 300.246C276.122 300.557 271.644 295.892 271.333 289.921Z" fill="#FF8773"/>
<path d="M291.421 312.374L282.465 318.593L278.111 312.374C276.37 309.886 276.992 306.465 279.48 304.786C281.968 303.044 285.326 303.666 287.068 306.154L291.421 312.374Z" fill="#FFE79E"/>
<g style="mix-blend-mode:multiply">
<path d="M278.111 312.373L282.465 318.593L290.364 313.182C288.311 308.704 284.144 305.594 279.417 304.848C276.992 306.527 276.432 309.885 278.111 312.373Z" fill="#FFE79E"/>
</g>
<path d="M286.943 350.685L274.753 349.13C273.198 348.881 271.954 347.638 271.83 346.02L269.28 311.813C268.969 307.833 272.141 304.412 276.121 304.412C284.207 304.412 290.799 311.005 290.799 319.09V347.327C290.799 349.317 288.996 350.934 286.943 350.685Z" fill="#FFE79E"/>
<path d="M306.162 308.268C306.162 307.957 305.913 307.708 305.602 307.708C305.291 307.708 305.105 307.957 305.105 308.268C304.98 309.574 304.607 310.818 303.861 311.876L303.736 311.813C304.296 310.88 304.732 309.823 304.856 308.641C304.856 308.393 304.545 308.082 304.296 308.082C303.985 308.082 303.736 308.393 303.736 308.641C303.674 309.201 303.488 309.823 303.301 310.321C303.114 310.756 302.866 311.254 302.555 311.627C302.513 311.668 302.472 311.71 302.43 311.751C302.306 311.876 302.119 312.062 302.119 312.062C302.119 312.104 302.119 312.124 302.119 312.124C302.078 312.166 302.036 312.207 301.995 312.249C301.995 312.249 301.995 312.228 301.995 312.187C301.995 312.062 301.995 311.958 301.995 311.876C301.995 311.834 301.995 311.793 301.995 311.751C301.995 311.71 301.995 311.647 301.995 311.565C302.078 311.316 302.14 311.088 302.182 310.88C302.244 310.632 302.119 310.383 301.871 310.321C301.684 310.258 301.435 310.383 301.373 310.632C301.186 311.129 301.062 311.689 301.124 312.249C301.124 312.58 301.207 312.891 301.373 313.182C299.59 316.043 297.662 318.8 295.589 321.454C294.407 323.071 293.163 324.439 291.919 325.185C291.297 325.621 290.675 325.807 289.929 325.994C289.245 326.118 288.499 326.18 287.752 326.118C287.006 326.056 286.26 325.869 285.513 325.621C285.14 325.434 284.829 325.31 284.518 325.123C284.145 324.957 283.793 324.75 283.461 324.501C282.217 323.63 281.035 322.324 280.102 320.894C278.236 318.033 277.304 314.363 276.619 310.445L268.596 312.062C269.094 314.239 269.716 316.478 270.586 318.717C271.457 320.894 272.577 323.133 274.069 325.185C275.624 327.176 277.49 329.041 279.729 330.41C280.31 330.741 280.911 331.032 281.533 331.28C282.155 331.571 282.797 331.819 283.461 332.027C284.767 332.4 286.073 332.587 287.441 332.649C288.81 332.649 290.178 332.524 291.546 332.089C292.852 331.716 294.221 331.094 295.34 330.285C296.46 329.477 297.393 328.544 298.201 327.611C298.947 326.616 299.632 325.683 300.254 324.75C302.41 321.516 304.4 318.178 306.224 314.737C306.266 314.695 306.307 314.633 306.349 314.55C307.033 313.555 307.53 312.497 307.779 311.378C307.904 310.818 307.095 310.569 306.971 311.129C306.763 311.876 306.473 312.601 306.1 313.306C306.058 313.223 305.996 313.161 305.913 313.119C306.597 311.938 307.095 310.632 307.282 309.326C307.282 309.015 307.157 308.704 306.846 308.641C306.597 308.579 306.224 308.704 306.224 309.015C306.038 310.258 305.665 311.44 304.98 312.56L304.794 312.435C305.602 311.191 306.1 309.761 306.162 308.268Z" fill="#FF8773"/>
<path d="M280.04 316.665L269.715 320.21L267.228 312.995C266.232 310.197 267.725 307.087 270.586 306.092C273.447 305.097 276.557 306.589 277.552 309.45L280.04 316.665Z" fill="#FFE79E"/>
<path d="M287.316 279.659C287.627 280.84 286.819 282.022 285.761 282.644C284.704 283.204 283.46 283.266 282.279 283.453C280.35 283.763 278.485 284.261 276.805 285.132C275.126 286.065 273.571 287.309 272.514 288.926C272.079 289.61 271.643 290.418 270.897 290.729C269.964 291.04 268.969 290.481 268.471 289.672C267.974 288.801 267.974 287.806 267.974 286.873C268.098 283.701 269.031 280.405 271.394 278.352C272.825 277.109 274.629 276.424 276.494 276.051C279.231 275.492 282.216 275.554 284.704 276.798C285.45 277.109 286.01 277.979 286.508 278.601C287.005 279.285 287.441 279.783 287.192 280.592" fill="black"/>
<path d="M286.944 279.783C287.441 281.96 284.829 282.768 283.15 283.017C281.471 283.266 279.854 283.515 278.237 284.136C276.868 284.696 275.562 285.38 274.443 286.313C273.261 287.308 272.577 288.49 271.644 289.672C270.96 290.543 269.965 290.729 269.156 289.921C268.348 289.174 268.285 287.993 268.285 286.997C268.348 285.443 268.596 283.888 269.094 282.457C270.338 278.974 273.137 277.046 276.62 276.362C278.548 275.989 280.662 275.927 282.59 276.362C283.585 276.611 284.643 276.922 285.389 277.73C285.949 278.352 287.068 279.534 286.882 280.467C286.757 280.902 287.442 281.089 287.504 280.654C287.69 279.845 287.441 279.347 286.944 278.663C286.446 277.979 285.949 277.171 285.265 276.673C283.648 275.554 281.222 275.305 279.356 275.367C275.438 275.429 271.271 276.86 269.281 280.467C268.348 282.022 267.912 283.826 267.726 285.691C267.539 287.371 267.415 289.547 268.97 290.667C270.276 291.6 271.52 291.04 272.39 289.796C273.634 287.993 274.94 286.5 276.993 285.443C278.237 284.821 279.605 284.323 281.035 284.074C282.217 283.763 283.461 283.701 284.643 283.39C286.384 282.955 288.001 281.586 287.628 279.596C287.504 279.161 286.882 279.347 286.944 279.783Z" fill="black"/>
<path d="M289.617 291.724C285.202 294.15 279.666 292.035 278.236 291.351C278.049 291.289 277.863 291.413 277.8 291.6C277.054 295.767 278.422 298.628 279.666 300.307C279.749 300.39 279.832 300.431 279.915 300.431C280.33 300.473 280.765 300.473 281.221 300.431C285.513 300.183 289.058 296.7 290.053 292.097C290.115 291.848 289.866 291.6 289.617 291.724Z" fill="white"/>
<path d="M270.959 288.801C272.327 289.381 273.654 290.065 274.939 290.853C275.561 291.226 276.183 291.62 276.805 292.035C277.365 292.408 277.925 292.968 277.987 293.714C277.987 294.15 278.733 294.15 278.733 293.714C278.609 292.035 276.867 291.164 275.623 290.418C274.214 289.547 272.721 288.78 271.145 288.117C270.71 287.93 270.523 288.676 270.959 288.801Z" fill="white"/>
<g style="mix-blend-mode:multiply" opacity="0.8">
<path d="M277.614 292.907C277.365 296.328 278.547 298.815 279.667 300.308C279.749 300.391 279.832 300.432 279.915 300.432C280.33 300.474 280.765 300.474 281.221 300.432C283.274 300.308 285.202 299.437 286.695 298.069C281.595 299.126 278.36 294.089 277.614 292.907Z" fill="#E6E6E6"/>
</g>
<path d="M272.701 290.356C273.074 291.911 272.577 293.403 271.519 293.652C270.524 293.963 269.342 292.906 268.907 291.351C268.534 289.796 269.031 288.366 270.027 288.055C271.084 287.806 272.266 288.801 272.701 290.356Z" fill="#FF8773"/>
<g style="mix-blend-mode:multiply">
<path d="M269.591 289.61C269.653 289.361 269.84 289.175 270.089 289.05C270.4 288.988 270.711 289.05 270.959 289.174C271.519 289.548 271.706 290.232 271.768 290.854C271.83 291.04 272.079 291.04 272.079 290.854C272.017 290.107 271.706 289.237 270.959 288.864C270.648 288.739 270.275 288.677 269.964 288.801C269.653 288.926 269.405 289.175 269.28 289.548C269.218 289.734 269.529 289.796 269.591 289.61Z" fill="#FF8773"/>
<path d="M270.711 288.862C270.151 289.111 270.089 289.795 270.026 290.355C270.026 290.541 270.337 290.541 270.337 290.355C270.337 289.92 270.4 289.36 270.897 289.111C270.959 289.111 270.959 288.987 270.959 288.924C270.897 288.862 270.773 288.862 270.711 288.862Z" fill="#FF8773"/>
</g>
<path d="M281.657 290.667C281.657 291.165 281.408 291.538 281.159 291.538C280.91 291.538 280.662 291.165 280.662 290.667C280.662 290.232 280.91 289.859 281.159 289.859C281.408 289.859 281.657 290.232 281.657 290.667Z" fill="black" stroke="black" stroke-width="0.248781" stroke-miterlimit="10"/>
<path d="M288.934 290.356C288.934 290.791 288.685 291.164 288.436 291.164C288.187 291.164 287.938 290.791 287.938 290.356C287.938 289.858 288.187 289.485 288.436 289.485C288.685 289.485 288.934 289.858 288.934 290.356Z" fill="black" stroke="black" stroke-width="0.248781" stroke-miterlimit="10"/>
<path d="M279.791 288.614C280.04 288.303 280.413 288.117 280.786 288.117C281.159 288.055 281.532 288.179 281.781 288.49C281.968 288.614 282.217 288.366 282.03 288.241C281.719 287.868 281.221 287.681 280.786 287.744C280.289 287.744 279.853 287.992 279.542 288.366C279.418 288.49 279.667 288.801 279.791 288.614Z" fill="#1A1A1A"/>
<path d="M286.944 288.055C287.193 287.744 287.504 287.557 287.877 287.557C288.312 287.495 288.685 287.682 288.934 287.931C289.121 288.055 289.369 287.806 289.183 287.682C288.872 287.309 288.374 287.122 287.877 287.184C287.441 287.184 287.006 287.433 286.695 287.806C286.571 287.931 286.819 288.242 286.944 288.055Z" fill="#1A1A1A"/>
<path d="M277.054 284.013C277.614 283.391 278.36 283.018 279.107 282.707C279.48 282.582 279.853 282.52 280.288 282.458C280.661 282.396 281.097 282.458 281.47 282.458C279.915 282.644 278.36 283.08 277.054 284.013Z" fill="white"/>
<path d="M290.053 284.572H267.663C267.663 279.224 272.701 274.87 278.858 274.87C285.078 274.87 290.053 279.224 290.053 284.572Z" fill="#FFE79E"/>
<g style="mix-blend-mode:multiply">
<path d="M272.638 305.78C273.385 305.656 274.193 305.843 274.939 306.153C275.624 306.527 276.183 307.086 276.681 307.708C277.178 308.33 277.552 309.014 277.8 309.699C277.925 310.072 278.049 310.445 278.174 310.818C278.236 311.191 278.36 311.564 278.36 311.938C278.049 311.253 277.8 310.569 277.489 309.885C277.116 309.201 276.805 308.579 276.308 308.019C275.872 307.397 275.313 306.9 274.753 306.527C274.131 306.153 273.385 305.842 272.638 305.78Z" fill="#FFE79E"/>
</g>
<path d="M296.397 286.127H267.476C267.041 286.127 266.668 285.816 266.668 285.381C266.668 284.945 267.041 284.572 267.476 284.572H296.397C296.833 284.572 297.206 284.945 297.206 285.381C297.206 285.816 296.833 286.127 296.397 286.127Z" fill="#FFC20C"/>
<g style="mix-blend-mode:multiply" opacity="0.5">
<path d="M267.663 284.572H283.336C275.624 283.452 271.644 280.902 269.716 279.099C268.409 280.654 267.663 282.519 267.663 284.572Z" fill="#FFE79E"/>
</g>
</g>
<path d="M364.252 368.224H362.138C361.702 368.224 361.267 367.851 361.267 367.354V352.302C361.267 351.867 361.702 351.494 362.138 351.494H364.252C364.688 351.494 365.061 351.867 365.061 352.302V367.354C365.061 367.851 364.688 368.224 364.252 368.224Z" fill="#FFE79E"/>
<path d="M365.061 367.478V352.738C368.233 352.738 370.721 355.288 370.721 358.398V361.881C370.721 364.991 368.233 367.478 365.061 367.478Z" fill="white"/>
<path d="M365.061 367.478V352.738C368.233 352.738 370.721 355.288 370.721 358.398V361.881C370.721 364.991 368.233 367.478 365.061 367.478Z" fill="white"/>
<g style="mix-blend-mode:multiply" opacity="0.8">
<path d="M365.061 358.398V367.478C367.673 367.478 369.85 365.799 370.534 363.436C367.486 362.814 365.932 360.45 365.061 358.398Z" fill="#E6E6E6"/>
</g>
<g style="mix-blend-mode:multiply" opacity="0.3">
<path d="M237.063 256.087C178.724 346.207 87.359 363.498 51.2236 366.732V389.868H237.063V256.087Z" fill="#FFE79E"/>
</g>
<path d="M126.107 297.198H131.083C134.752 297.198 137.302 294.897 137.302 291.538C137.302 288.118 134.752 285.817 131.083 285.817H126.107V297.198ZM128.222 295.395V287.62H130.958C133.508 287.62 135.125 289.175 135.125 291.538C135.125 293.902 133.508 295.395 130.958 295.395H128.222ZM142.464 295.457V292.285H147.937V290.543H142.464V287.62H148.684V285.817H140.35V297.198H148.87V295.457H142.464ZM152.042 297.198H160.128V295.395H154.157V285.817H152.042V297.198ZM162.615 297.198H164.73V285.817H162.615V297.198ZM176.796 285.817L173.002 294.586L169.208 285.817H166.907L171.883 297.198H173.997L178.911 285.817H176.796ZM183.078 295.457V292.285H188.551V290.543H183.078V287.62H189.235V285.817H180.963V297.198H189.484V295.457H183.078ZM202.358 297.198L199.746 293.467C201.301 292.845 202.172 291.601 202.172 289.859C202.172 287.371 200.368 285.817 197.32 285.817H192.656V297.198H194.77V293.902H197.32C197.507 293.902 197.631 293.902 197.818 293.902L200.119 297.198H202.358ZM200.057 289.859C200.057 291.29 199.062 292.16 197.196 292.16H194.77V287.62H197.196C199.062 287.62 200.057 288.429 200.057 289.859ZM214.548 285.817H212.434L209.075 291.352L205.717 285.817H203.478L207.956 293.218V297.198H210.07V293.218L214.548 285.817Z" fill="#FFC20C"/>
<path d="M104.649 263.55H161.309" stroke="#FFC20C" stroke-width="1.99024" stroke-miterlimit="10" stroke-linecap="round"/>
<path d="M75.0449 273.936H161.31" stroke="#FFC20C" stroke-width="1.99024" stroke-miterlimit="10" stroke-linecap="round"/>
<path d="M75.0449 286.562H121.816" stroke="#FFC20C" stroke-width="1.99024" stroke-miterlimit="10" stroke-linecap="round"/>
<path d="M176.078 266.933C176.078 268.275 175.824 269.417 175.315 270.359C174.81 271.3 174.121 272.019 173.247 272.516C172.378 273.009 171.4 273.256 170.314 273.256C169.22 273.256 168.239 273.007 167.369 272.51C166.5 272.013 165.812 271.294 165.308 270.353C164.803 269.411 164.55 268.271 164.55 266.933C164.55 265.59 164.803 264.448 165.308 263.507C165.812 262.565 166.5 261.848 167.369 261.355C168.239 260.858 169.22 260.61 170.314 260.61C171.4 260.61 172.378 260.858 173.247 261.355C174.121 261.848 174.81 262.565 175.315 263.507C175.824 264.448 176.078 265.59 176.078 266.933ZM173.44 266.933C173.44 266.063 173.309 265.33 173.049 264.733C172.792 264.136 172.43 263.683 171.961 263.375C171.492 263.066 170.943 262.912 170.314 262.912C169.685 262.912 169.136 263.066 168.667 263.375C168.199 263.683 167.834 264.136 167.573 264.733C167.317 265.33 167.189 266.063 167.189 266.933C167.189 267.802 167.317 268.535 167.573 269.132C167.834 269.729 168.199 270.182 168.667 270.491C169.136 270.799 169.685 270.954 170.314 270.954C170.943 270.954 171.492 270.799 171.961 270.491C172.43 270.182 172.792 269.729 173.049 269.132C173.309 268.535 173.44 267.802 173.44 266.933ZM180.518 267.75V273.087H177.958V263.855H180.398V265.484H180.506C180.711 264.947 181.053 264.523 181.534 264.21C182.015 263.893 182.598 263.735 183.283 263.735C183.924 263.735 184.483 263.875 184.96 264.156C185.437 264.436 185.807 264.837 186.072 265.358C186.336 265.875 186.469 266.492 186.469 267.209V273.087H183.908V267.666C183.912 267.101 183.768 266.66 183.475 266.344C183.183 266.023 182.78 265.863 182.267 265.863C181.923 265.863 181.618 265.937 181.354 266.085C181.093 266.233 180.889 266.45 180.741 266.734C180.596 267.015 180.522 267.353 180.518 267.75ZM188.535 273.087V260.778H196.829V262.924H191.137V265.857H196.402V268.003H191.137V270.942H196.853V273.087H188.535ZM201.122 260.778L204.097 270.13H204.211L207.192 260.778H210.077L205.834 273.087H202.48L198.231 260.778H201.122Z" fill="#FFBD0B"/>
</svg>
