<svg width="25" height="25" viewBox="0 0 25 25" fill="none" xmlns="http://www.w3.org/2000/svg">
<g clip-path="url(#clip0_522_3521)">
<path d="M20.9968 9.22783C19.9468 4.60783 15.9168 2.52783 12.3768 2.52783C12.3768 2.52783 12.3768 2.52783 12.3668 2.52783C8.8368 2.52783 4.7968 4.59783 3.7468 9.21783C2.5768 14.3778 5.7368 18.7478 8.5968 21.4978C9.6568 22.5178 11.0168 23.0278 12.3768 23.0278C13.7368 23.0278 15.0968 22.5178 16.1468 21.4978C19.0068 18.7478 22.1668 14.3878 20.9968 9.22783ZM12.3768 14.2378C10.6368 14.2378 9.2268 12.8278 9.2268 11.0878C9.2268 9.34783 10.6368 7.93783 12.3768 7.93783C14.1168 7.93783 15.5268 9.34783 15.5268 11.0878C15.5268 12.8278 14.1168 14.2378 12.3768 14.2378Z" fill="#FFC20C"/>
</g>
<defs>
<clipPath id="clip0_522_3521">
<rect width="24" height="24" fill="white" transform="translate(0.376831 0.777832)"/>
</clipPath>
</defs>
</svg>
