<svg width="26" height="26" viewBox="0 0 26 26" fill="none" xmlns="http://www.w3.org/2000/svg">
<path d="M12.048 4.7478H4.72839C4.17374 4.7478 3.64181 4.96814 3.24961 5.36033C2.85742 5.75253 2.63708 6.28446 2.63708 6.83911V21.4783C2.63708 22.0329 2.85742 22.5649 3.24961 22.957C3.64181 23.3492 4.17374 23.5696 4.72839 23.5696H19.3676C19.9222 23.5696 20.4541 23.3492 20.8463 22.957C21.2385 22.5649 21.4589 22.0329 21.4589 21.4783V14.1587" stroke="black" stroke-width="2.09131" stroke-linecap="round" stroke-linejoin="round"/>
<path d="M19.8904 3.17923C20.3064 2.76324 20.8706 2.52954 21.4589 2.52954C22.0472 2.52954 22.6114 2.76324 23.0273 3.17923C23.4433 3.59521 23.677 4.15941 23.677 4.74771C23.677 5.336 23.4433 5.9002 23.0273 6.31619L13.0936 16.2499L8.91101 17.2956L9.95667 13.1129L19.8904 3.17923Z" stroke="black" stroke-width="2.09131" stroke-linecap="round" stroke-linejoin="round"/>
</svg>
