<svg width="37" height="51" viewBox="0 0 37 51" fill="none" xmlns="http://www.w3.org/2000/svg">
<path d="M13.7028 34.0994L13.324 28.7975C13.1204 25.947 15.378 23.5225 18.2357 23.5225C21.0934 23.5225 23.351 25.947 23.1474 28.7975L22.7687 34.0994" stroke="black" stroke-width="2.26648"/>
<path d="M3.6579 20.823C3.12449 17.352 2.85779 15.6164 3.51402 14.0779C4.17024 12.5393 5.62616 11.4866 8.538 9.38123L10.7136 7.8082C14.3359 5.18916 16.147 3.87964 18.2368 3.87964C20.3266 3.87964 22.1377 5.18916 25.76 7.8082L27.9356 9.38123C30.8475 11.4866 32.3034 12.5393 32.9596 14.0779C33.6158 15.6164 33.3491 17.352 32.8157 20.823L32.3609 23.7829C31.6047 28.7035 31.2266 31.1638 29.4619 32.6316C27.6972 34.0994 25.1173 34.0994 19.9575 34.0994H16.5161C11.3563 34.0994 8.77639 34.0994 7.0117 32.6316C5.247 31.1638 4.86892 28.7035 4.11276 23.7829L3.6579 20.823Z" stroke="black" stroke-width="2.26648" stroke-linejoin="round"/>
<path d="M4.46495 47.1213V39.7341H5.80317V42.8614H9.22627V39.7341H10.5681V47.1213H9.22627V43.9832H5.80317V47.1213H4.46495ZM14.3826 47.2295C13.8415 47.2295 13.3726 47.1105 12.9758 46.8725C12.579 46.6344 12.2712 46.3013 12.0524 45.8733C11.836 45.4453 11.7278 44.9451 11.7278 44.3728C11.7278 43.8004 11.836 43.2991 12.0524 42.8686C12.2712 42.4382 12.579 42.1039 12.9758 41.8659C13.3726 41.6278 13.8415 41.5088 14.3826 41.5088C14.9236 41.5088 15.3925 41.6278 15.7893 41.8659C16.1861 42.1039 16.4927 42.4382 16.7091 42.8686C16.9279 43.2991 17.0374 43.8004 17.0374 44.3728C17.0374 44.9451 16.9279 45.4453 16.7091 45.8733C16.4927 46.3013 16.1861 46.6344 15.7893 46.8725C15.3925 47.1105 14.9236 47.2295 14.3826 47.2295ZM14.3898 46.1835C14.6831 46.1835 14.9284 46.1029 15.1256 45.9418C15.3228 45.7783 15.4695 45.5595 15.5657 45.2853C15.6643 45.0112 15.7136 44.7058 15.7136 44.3692C15.7136 44.0301 15.6643 43.7235 15.5657 43.4494C15.4695 43.1728 15.3228 42.9528 15.1256 42.7893C14.9284 42.6257 14.6831 42.544 14.3898 42.544C14.0892 42.544 13.8391 42.6257 13.6395 42.7893C13.4423 42.9528 13.2944 43.1728 13.1958 43.4494C13.0996 43.7235 13.0516 44.0301 13.0516 44.3692C13.0516 44.7058 13.0996 45.0112 13.1958 45.2853C13.2944 45.5595 13.4423 45.7783 13.6395 45.9418C13.8391 46.1029 14.0892 46.1835 14.3898 46.1835ZM18.1456 47.1213V41.5809H19.3937V42.5223H19.4586C19.574 42.2049 19.7652 41.9572 20.0321 41.7793C20.299 41.5989 20.6177 41.5088 20.988 41.5088C21.3631 41.5088 21.6793 41.6001 21.9366 41.7829C22.1963 41.9632 22.3791 42.2097 22.4849 42.5223H22.5426C22.6653 42.2145 22.8721 41.9693 23.163 41.7865C23.4564 41.6013 23.8039 41.5088 24.2055 41.5088C24.7153 41.5088 25.1313 41.6699 25.4535 41.9921C25.7758 42.3143 25.9369 42.7845 25.9369 43.4025V47.1213H24.6275V43.6045C24.6275 43.2606 24.5361 43.0093 24.3534 42.8506C24.1706 42.6895 23.947 42.6089 23.6825 42.6089C23.3674 42.6089 23.121 42.7075 22.943 42.9047C22.7675 43.0995 22.6797 43.3532 22.6797 43.6658V47.1213H21.3992V43.5504C21.3992 43.2642 21.3126 43.0357 21.1395 42.865C20.9687 42.6943 20.7451 42.6089 20.4686 42.6089C20.281 42.6089 20.1103 42.657 19.9564 42.7532C19.8025 42.847 19.6798 42.9804 19.5884 43.1536C19.4971 43.3243 19.4514 43.5239 19.4514 43.7523V47.1213H18.1456ZM29.7144 47.2295C29.1589 47.2295 28.6791 47.1141 28.2751 46.8833C27.8736 46.65 27.5646 46.3206 27.3481 45.8949C27.1317 45.4669 27.0235 44.9631 27.0235 44.3836C27.0235 43.8137 27.1317 43.3135 27.3481 42.883C27.567 42.4502 27.8724 42.1135 28.2643 41.8731C28.6563 41.6302 29.1168 41.5088 29.6458 41.5088C29.9873 41.5088 30.3095 41.5641 30.6125 41.6747C30.9179 41.7829 31.1872 41.9512 31.4205 42.1797C31.6562 42.4081 31.8413 42.6991 31.976 43.0526C32.1106 43.4037 32.178 43.8221 32.178 44.3078V44.7082H27.6367V43.8281H30.9263C30.9239 43.578 30.8698 43.3556 30.764 43.1608C30.6582 42.9636 30.5103 42.8085 30.3203 42.6955C30.1328 42.5825 29.9139 42.5259 29.6639 42.5259C29.3969 42.5259 29.1625 42.5909 28.9605 42.7207C28.7585 42.8482 28.601 43.0165 28.488 43.2257C28.3773 43.4325 28.3208 43.6598 28.3184 43.9074V44.6758C28.3184 44.998 28.3773 45.2745 28.4952 45.5054C28.613 45.7338 28.7777 45.9094 28.9893 46.032C29.201 46.1522 29.4486 46.2124 29.7324 46.2124C29.9224 46.2124 30.0943 46.1859 30.2482 46.133C30.4021 46.0777 30.5356 45.9971 30.6486 45.8913C30.7616 45.7855 30.847 45.6545 30.9047 45.4982L32.1239 45.6352C32.0469 45.9575 31.9002 46.2388 31.6838 46.4793C31.4698 46.7173 31.1957 46.9025 30.8614 47.0348C30.5271 47.1646 30.1448 47.2295 29.7144 47.2295Z" fill="black"/>
</svg>
