<svg width="3" height="51" viewBox="0 0 3 51" fill="none" xmlns="http://www.w3.org/2000/svg">
<path fill-rule="evenodd" clip-rule="evenodd" d="M1.61401 0.616943C2.02823 0.616943 2.36401 0.992142 2.36401 1.45497L2.36401 4.49283C2.36401 4.95566 2.02823 5.33086 1.61401 5.33086C1.1998 5.33086 0.864013 4.95566 0.864014 4.49283L0.864014 1.45497C0.864014 0.992142 1.1998 0.616943 1.61401 0.616943ZM1.61401 9.73051C2.02823 9.73051 2.36401 10.1057 2.36401 10.5685L2.36401 16.6442C2.36401 17.1071 2.02823 17.4823 1.61401 17.4823C1.1998 17.4823 0.864013 17.1071 0.864013 16.6442L0.864013 10.5685C0.864013 10.1057 1.1998 9.73051 1.61401 9.73051ZM1.61401 21.8819C2.02823 21.8819 2.36401 22.2571 2.36401 22.72L2.36401 28.7957C2.36401 29.2585 2.02823 29.6337 1.61401 29.6337C1.1998 29.6337 0.864012 29.2585 0.864012 28.7957L0.864013 22.72C0.864013 22.2571 1.1998 21.8819 1.61401 21.8819ZM1.61401 34.0333C2.02823 34.0333 2.36401 34.4085 2.36401 34.8714L2.36401 40.9471C2.36401 41.4099 2.02823 41.7851 1.61401 41.7851C1.1998 41.7851 0.864012 41.4099 0.864012 40.9471L0.864012 34.8714C0.864012 34.4085 1.1998 34.0333 1.61401 34.0333ZM1.61401 46.1848C2.02823 46.1848 2.36401 46.56 2.36401 47.0228L2.36401 50.0606C2.36401 50.5235 2.02823 50.8987 1.61401 50.8987C1.1998 50.8987 0.864011 50.5235 0.864012 50.0606L0.864012 47.0228C0.864012 46.56 1.1998 46.1848 1.61401 46.1848Z" fill="#A7A9B7"/>
</svg>
