<svg width="37" height="51" viewBox="0 0 37 51" fill="none" xmlns="http://www.w3.org/2000/svg">
<path d="M13.9669 22.7672H20.0109M13.9669 15.2123H26.0548" stroke="black" stroke-width="2.26648" stroke-linecap="round"/>
<rect x="6.41199" y="3.87988" width="26.4423" height="30.2197" rx="6.04395" stroke="black" stroke-width="2.26648"/>
<path d="M7.92297 9.92383L4.14551 9.92383M7.92297 18.9897L4.14551 18.9897M7.92297 28.0557H4.14551" stroke="black" stroke-width="2.26648" stroke-linecap="round" stroke-linejoin="round"/>
<path d="M8.82942 43.428C8.82942 44.2239 8.68033 44.9056 8.38214 45.4732C8.08637 46.0383 7.68238 46.4711 7.17017 46.7717C6.66038 47.0723 6.08204 47.2226 5.43518 47.2226C4.78831 47.2226 4.20878 47.0723 3.69658 46.7717C3.18678 46.4687 2.78279 46.0347 2.4846 45.4695C2.18883 44.902 2.04094 44.2215 2.04094 43.428C2.04094 42.632 2.18883 41.9515 2.4846 41.3864C2.78279 40.8188 3.18678 40.3848 3.69658 40.0842C4.20878 39.7836 4.78831 39.6333 5.43518 39.6333C6.08204 39.6333 6.66038 39.7836 7.17017 40.0842C7.68238 40.3848 8.08637 40.8188 8.38214 41.3864C8.68033 41.9515 8.82942 42.632 8.82942 43.428ZM7.48399 43.428C7.48399 42.8677 7.39622 42.3951 7.22067 42.0104C7.04753 41.6232 6.80706 41.3311 6.49926 41.1339C6.19146 40.9343 5.83676 40.8345 5.43518 40.8345C5.03359 40.8345 4.6789 40.9343 4.3711 41.1339C4.06329 41.3311 3.82162 41.6232 3.64608 42.0104C3.47294 42.3951 3.38637 42.8677 3.38637 43.428C3.38637 43.9883 3.47294 44.462 3.64608 44.8491C3.82162 45.2339 4.06329 45.5261 4.3711 45.7257C4.6789 45.9228 5.03359 46.0214 5.43518 46.0214C5.83676 46.0214 6.19146 45.9228 6.49926 45.7257C6.80706 45.5261 7.04753 45.2339 7.22067 44.8491C7.39622 44.462 7.48399 43.9883 7.48399 43.428ZM10.0369 47.1216V41.5811H11.303V42.5045H11.3607C11.4617 42.1847 11.6348 41.9382 11.8801 41.7651C12.1278 41.5896 12.4103 41.5018 12.7277 41.5018C12.7999 41.5018 12.8804 41.5054 12.9694 41.5126C13.0608 41.5174 13.1365 41.5258 13.1967 41.5379V42.739C13.1414 42.7198 13.0536 42.7029 12.9333 42.6885C12.8155 42.6717 12.7013 42.6633 12.5907 42.6633C12.3526 42.6633 12.1386 42.715 11.9486 42.8184C11.7611 42.9194 11.6132 43.06 11.505 43.2404C11.3967 43.4207 11.3426 43.6287 11.3426 43.8644V47.1216H10.0369ZM15.892 47.219C15.4568 47.219 15.0672 47.1072 14.7234 46.8835C14.3795 46.6599 14.1077 46.3352 13.9082 45.9096C13.7086 45.484 13.6088 44.967 13.6088 44.3586C13.6088 43.743 13.7098 43.2236 13.9118 42.8003C14.1162 42.3747 14.3915 42.0537 14.7378 41.8372C15.0841 41.6184 15.47 41.509 15.8956 41.509C16.2203 41.509 16.4872 41.5643 16.6964 41.6749C16.9056 41.7831 17.0715 41.9142 17.1942 42.0681C17.3168 42.2196 17.4118 42.3627 17.4791 42.4973H17.5332V39.7343H18.8426V47.1216H17.5585V46.2487H17.4791C17.4118 46.3833 17.3144 46.5264 17.187 46.6779C17.0595 46.827 16.8912 46.9545 16.682 47.0603C16.4728 47.1661 16.2095 47.219 15.892 47.219ZM16.2564 46.1477C16.5329 46.1477 16.7686 46.0731 16.9633 45.924C17.1581 45.7725 17.306 45.5621 17.407 45.2928C17.508 45.0235 17.5585 44.7097 17.5585 44.3514C17.5585 43.9931 17.508 43.6817 17.407 43.4171C17.3084 43.1526 17.1617 42.947 16.9669 42.8003C16.7746 42.6536 16.5377 42.5803 16.2564 42.5803C15.9654 42.5803 15.7225 42.656 15.5277 42.8075C15.3329 42.959 15.1863 43.1682 15.0877 43.4352C14.9891 43.7021 14.9398 44.0075 14.9398 44.3514C14.9398 44.6976 14.9891 45.0066 15.0877 45.2784C15.1887 45.5477 15.3366 45.7605 15.5313 45.9168C15.7285 46.0707 15.9702 46.1477 16.2564 46.1477ZM22.6868 47.2298C22.1313 47.2298 21.6516 47.1144 21.2476 46.8835C20.846 46.6503 20.537 46.3208 20.3206 45.8952C20.1042 45.4671 19.996 44.9634 19.996 44.3838C19.996 43.8139 20.1042 43.3137 20.3206 42.8833C20.5394 42.4504 20.8448 42.1138 21.2368 41.8733C21.6288 41.6304 22.0893 41.509 22.6183 41.509C22.9598 41.509 23.282 41.5643 23.585 41.6749C23.8904 41.7831 24.1597 41.9515 24.393 42.1799C24.6286 42.4084 24.8138 42.6993 24.9485 43.0528C25.0831 43.4039 25.1505 43.8223 25.1505 44.3081V44.7085H20.6092V43.8283H23.8988C23.8964 43.5782 23.8423 43.3558 23.7365 43.161C23.6307 42.9638 23.4828 42.8087 23.2928 42.6957C23.1053 42.5827 22.8864 42.5262 22.6363 42.5262C22.3694 42.5262 22.135 42.5911 21.933 42.721C21.731 42.8484 21.5735 43.0168 21.4604 43.226C21.3498 43.4328 21.2933 43.66 21.2909 43.9077V44.676C21.2909 44.9982 21.3498 45.2748 21.4676 45.5056C21.5855 45.7341 21.7502 45.9096 21.9618 46.0323C22.1734 46.1525 22.4211 46.2126 22.7049 46.2126C22.8948 46.2126 23.0668 46.1862 23.2207 46.1332C23.3746 46.0779 23.508 45.9974 23.6211 45.8916C23.7341 45.7858 23.8195 45.6547 23.8772 45.4984L25.0963 45.6355C25.0194 45.9577 24.8727 46.2391 24.6563 46.4795C24.4423 46.7176 24.1681 46.9028 23.8339 47.035C23.4996 47.1649 23.1173 47.2298 22.6868 47.2298ZM26.2551 47.1216V41.5811H27.5212V42.5045H27.5789C27.6799 42.1847 27.853 41.9382 28.0983 41.7651C28.346 41.5896 28.6286 41.5018 28.946 41.5018C29.0181 41.5018 29.0987 41.5054 29.1877 41.5126C29.279 41.5174 29.3548 41.5258 29.4149 41.5379V42.739C29.3596 42.7198 29.2718 42.7029 29.1516 42.6885C29.0338 42.6717 28.9195 42.6633 28.8089 42.6633C28.5708 42.6633 28.3568 42.715 28.1669 42.8184C27.9793 42.9194 27.8314 43.06 27.7232 43.2404C27.615 43.4207 27.5609 43.6287 27.5609 43.8644V47.1216H26.2551ZM34.6614 43.0456L33.471 43.1755C33.4374 43.0552 33.3785 42.9422 33.2943 42.8364C33.2125 42.7306 33.1019 42.6452 32.9624 42.5803C32.823 42.5154 32.6522 42.4829 32.4502 42.4829C32.1785 42.4829 31.9501 42.5418 31.7649 42.6597C31.5821 42.7775 31.492 42.9302 31.4944 43.1177C31.492 43.2789 31.5509 43.4099 31.6711 43.5109C31.7938 43.6119 31.9957 43.6949 32.2771 43.7598L33.2221 43.9618C33.7464 44.0748 34.1359 44.254 34.3908 44.4993C34.6481 44.7445 34.778 45.0656 34.7804 45.4623C34.778 45.811 34.6758 46.1188 34.4738 46.3857C34.2742 46.6503 33.9965 46.8571 33.6406 47.0062C33.2847 47.1552 32.8759 47.2298 32.4142 47.2298C31.736 47.2298 31.1902 47.0879 30.7766 46.8042C30.363 46.518 30.1165 46.12 30.0371 45.6102L31.3104 45.4876C31.3681 45.7377 31.4908 45.9264 31.6783 46.0539C31.8659 46.1813 32.11 46.2451 32.4106 46.2451C32.7208 46.2451 32.9697 46.1813 33.1572 46.0539C33.3472 45.9264 33.4422 45.7689 33.4422 45.5814C33.4422 45.4227 33.3809 45.2916 33.2582 45.1882C33.138 45.0848 32.9504 45.0054 32.6955 44.9501L31.7505 44.7517C31.219 44.6411 30.8259 44.4548 30.571 44.1927C30.3161 43.9281 30.1898 43.5939 30.1922 43.1899C30.1898 42.8484 30.2824 42.5526 30.47 42.3026C30.6599 42.0501 30.9232 41.8553 31.2599 41.7182C31.599 41.5787 31.9897 41.509 32.4322 41.509C33.0815 41.509 33.5925 41.6473 33.9652 41.9238C34.3403 42.2004 34.5724 42.5743 34.6614 43.0456Z" fill="black"/>
</svg>
