<svg width="50" height="51" viewBox="0 0 50 51" fill="none" xmlns="http://www.w3.org/2000/svg">
<path d="M30.8076 22.0115C30.8076 23.2632 31.8224 24.278 33.0741 24.278C34.3258 24.278 35.3406 23.2632 35.3406 22.0115C35.3406 20.7597 34.3258 19.745 33.0741 19.745C31.8224 19.745 30.8076 20.7597 30.8076 22.0115Z" stroke="black" stroke-width="2.26648"/>
<path d="M21.7417 11.4346H30.8076C35.0813 11.4346 37.2182 11.4346 38.5459 12.7622C39.8735 14.0899 39.8735 16.2268 39.8735 20.5005V23.5225C39.8735 27.7962 39.8735 29.933 38.5459 31.2607C37.2182 32.5884 35.0813 32.5884 30.8076 32.5884H21.7417C16.0434 32.5884 13.1943 32.5884 11.424 30.8181C9.65381 29.0479 9.65381 26.1988 9.65381 20.5005V17.4785C9.65381 11.7802 9.65381 8.93109 11.424 7.16086C13.1943 5.39062 16.0434 5.39062 21.7417 5.39062H27.7856C29.1908 5.39062 29.8934 5.39062 30.4698 5.54508C32.0341 5.96423 33.256 7.18608 33.6751 8.75037C33.8296 9.32681 33.8296 10.0294 33.8296 11.4346" stroke="black" stroke-width="2.26648" stroke-linecap="round"/>
<path d="M0.992298 47.1213V39.7341H3.76252C4.33003 39.7341 4.80616 39.8399 5.19091 40.0515C5.57807 40.2631 5.87024 40.5541 6.06743 40.9244C6.26702 41.2923 6.36681 41.7108 6.36681 42.1797C6.36681 42.6534 6.26702 43.0742 6.06743 43.4421C5.86784 43.8101 5.57326 44.0998 5.1837 44.3114C4.79414 44.5206 4.3144 44.6253 3.74448 44.6253H1.90849V43.5251H3.56413C3.89598 43.5251 4.16771 43.4674 4.37932 43.352C4.59094 43.2365 4.74724 43.0778 4.84824 42.8758C4.95164 42.6738 5.00335 42.4418 5.00335 42.1797C5.00335 41.9176 4.95164 41.6867 4.84824 41.4871C4.74724 41.2875 4.58974 41.1324 4.37572 41.0218C4.1641 40.9088 3.89117 40.8523 3.55692 40.8523H2.33052V47.1213H0.992298ZM8.9666 47.2332C8.61551 47.2332 8.29929 47.1706 8.01794 47.0456C7.739 46.9181 7.51777 46.7306 7.35425 46.4829C7.19313 46.2352 7.11257 45.9298 7.11257 45.5667C7.11257 45.2541 7.17029 44.9956 7.28571 44.7912C7.40114 44.5868 7.55865 44.4233 7.75824 44.3006C7.95783 44.178 8.18267 44.0854 8.43276 44.0229C8.68525 43.9579 8.94616 43.9111 9.21549 43.8822C9.54012 43.8485 9.80344 43.8185 10.0054 43.792C10.2074 43.7632 10.3541 43.7199 10.4455 43.6622C10.5393 43.6021 10.5862 43.5095 10.5862 43.3844V43.3628C10.5862 43.0911 10.5056 42.8806 10.3445 42.7315C10.1834 42.5825 9.95133 42.5079 9.64833 42.5079C9.32851 42.5079 9.07481 42.5776 8.88725 42.7171C8.70208 42.8566 8.57704 43.0213 8.51211 43.2113L7.29293 43.0381C7.38911 42.7015 7.54782 42.4201 7.76906 42.1941C7.99029 41.9656 8.26082 41.7949 8.58065 41.6819C8.90047 41.5665 9.25396 41.5088 9.64112 41.5088C9.90804 41.5088 10.1738 41.54 10.4383 41.6025C10.7028 41.6651 10.9445 41.7685 11.1633 41.9127C11.3821 42.0546 11.5577 42.2482 11.6899 42.4935C11.8246 42.7388 11.8919 43.0454 11.8919 43.4133V47.1213H10.6367V46.3602H10.5934C10.514 46.5141 10.4022 46.6584 10.2579 46.7931C10.116 46.9254 9.9369 47.0324 9.72048 47.1141C9.50646 47.1935 9.25517 47.2332 8.9666 47.2332ZM9.30566 46.2737C9.56778 46.2737 9.79502 46.222 9.9874 46.1186C10.1798 46.0128 10.3277 45.8733 10.4311 45.7002C10.5369 45.527 10.5898 45.3382 10.5898 45.1338V44.481C10.5489 44.5146 10.4792 44.5459 10.3806 44.5748C10.2844 44.6036 10.1762 44.6289 10.0559 44.6505C9.9357 44.6721 9.81666 44.6914 9.69883 44.7082C9.581 44.725 9.4788 44.7395 9.39223 44.7515C9.19745 44.778 9.02311 44.8212 8.86921 44.8814C8.71531 44.9415 8.59387 45.0256 8.5049 45.1338C8.41592 45.2397 8.37144 45.3767 8.37144 45.5451C8.37144 45.7855 8.45921 45.9671 8.63475 46.0897C8.81029 46.2124 9.03393 46.2737 9.30566 46.2737ZM13.8181 49.199C13.6401 49.199 13.4754 49.1846 13.3239 49.1557C13.1748 49.1293 13.0558 49.098 12.9668 49.0619L13.2698 48.0447C13.4598 48.1001 13.6293 48.1265 13.7784 48.1241C13.9275 48.1217 14.0586 48.0748 14.1716 47.9834C14.287 47.8945 14.3844 47.7454 14.4638 47.5361L14.5756 47.2368L12.5664 41.5809H13.9516L15.2285 45.7651H15.2862L16.5667 41.5809H17.9554L15.737 47.7923C15.6336 48.0856 15.4966 48.3369 15.3258 48.5461C15.1551 48.7577 14.9459 48.9189 14.6982 49.0295C14.4529 49.1425 14.1596 49.199 13.8181 49.199ZM18.859 47.1213V41.5809H20.107V42.5223H20.1719C20.2874 42.2049 20.4785 41.9572 20.7454 41.7793C21.0124 41.5989 21.331 41.5088 21.7013 41.5088C22.0765 41.5088 22.3927 41.6001 22.65 41.7829C22.9097 41.9632 23.0924 42.2097 23.1982 42.5223H23.256C23.3786 42.2145 23.5854 41.9693 23.8764 41.7865C24.1697 41.6013 24.5172 41.5088 24.9188 41.5088C25.4286 41.5088 25.8446 41.6699 26.1669 41.9921C26.4891 42.3143 26.6502 42.7845 26.6502 43.4025V47.1213H25.3408V43.6045C25.3408 43.2606 25.2495 43.0093 25.0667 42.8506C24.8839 42.6895 24.6603 42.6089 24.3958 42.6089C24.0808 42.6089 23.8343 42.7075 23.6563 42.9047C23.4808 43.0995 23.393 43.3532 23.393 43.6658V47.1213H22.1125V43.5504C22.1125 43.2642 22.026 43.0357 21.8528 42.865C21.6821 42.6943 21.4584 42.6089 21.1819 42.6089C20.9943 42.6089 20.8236 42.657 20.6697 42.7532C20.5158 42.847 20.3932 42.9804 20.3018 43.1536C20.2104 43.3243 20.1647 43.5239 20.1647 43.7523V47.1213H18.859ZM30.4277 47.2295C29.8722 47.2295 29.3925 47.1141 28.9885 46.8833C28.5869 46.65 28.2779 46.3206 28.0615 45.8949C27.845 45.4669 27.7368 44.9631 27.7368 44.3836C27.7368 43.8137 27.845 43.3135 28.0615 42.883C28.2803 42.4502 28.5857 42.1135 28.9777 41.8731C29.3696 41.6302 29.8301 41.5088 30.3592 41.5088C30.7006 41.5088 31.0229 41.5641 31.3258 41.6747C31.6312 41.7829 31.9006 41.9512 32.1338 42.1797C32.3695 42.4081 32.5547 42.6991 32.6893 43.0526C32.824 43.4037 32.8913 43.8221 32.8913 44.3078V44.7082H28.35V43.8281H31.6397C31.6373 43.578 31.5832 43.3556 31.4773 43.1608C31.3715 42.9636 31.2236 42.8085 31.0337 42.6955C30.8461 42.5825 30.6273 42.5259 30.3772 42.5259C30.1103 42.5259 29.8758 42.5909 29.6738 42.7207C29.4718 42.8482 29.3143 43.0165 29.2013 43.2257C29.0907 43.4325 29.0342 43.6598 29.0318 43.9074V44.6758C29.0318 44.998 29.0907 45.2745 29.2085 45.5054C29.3263 45.7338 29.4911 45.9094 29.7027 46.032C29.9143 46.1522 30.162 46.2124 30.4457 46.2124C30.6357 46.2124 30.8076 46.1859 30.9615 46.133C31.1154 46.0777 31.2489 45.9971 31.3619 45.8913C31.4749 45.7855 31.5603 45.6545 31.618 45.4982L32.8372 45.6352C32.7603 45.9575 32.6136 46.2388 32.3971 46.4793C32.1831 46.7173 31.909 46.9025 31.5747 47.0348C31.2405 47.1646 30.8581 47.2295 30.4277 47.2295ZM35.3017 43.875V47.1213H33.996V41.5809H35.244V42.5223H35.3089C35.4364 42.2121 35.6396 41.9656 35.9185 41.7829C36.1999 41.6001 36.5474 41.5088 36.961 41.5088C37.3433 41.5088 37.6764 41.5905 37.9601 41.754C38.2463 41.9176 38.4675 42.1544 38.6238 42.4646C38.7825 42.7748 38.8607 43.1512 38.8583 43.5936V47.1213H37.5525V43.7956C37.5525 43.4253 37.4563 43.1355 37.264 42.9263C37.074 42.7171 36.8107 42.6125 36.474 42.6125C36.2456 42.6125 36.0424 42.663 35.8644 42.764C35.6889 42.8626 35.5506 43.0057 35.4496 43.1933C35.351 43.3808 35.3017 43.6081 35.3017 43.875ZM42.9523 41.5809V42.5909H39.7673V41.5809H42.9523ZM40.5536 40.2535H41.8594V45.4549C41.8594 45.6304 41.8858 45.7651 41.9387 45.8589C41.994 45.9502 42.0662 46.0128 42.1551 46.0464C42.2441 46.0801 42.3427 46.0969 42.4509 46.0969C42.5327 46.0969 42.6072 46.0909 42.6746 46.0789C42.7443 46.0669 42.7972 46.0561 42.8333 46.0464L43.0533 47.0672C42.9836 47.0913 42.8838 47.1177 42.7539 47.1466C42.6265 47.1754 42.4702 47.1923 42.285 47.1971C41.958 47.2067 41.6634 47.1574 41.4013 47.0492C41.1391 46.9386 40.9311 46.7678 40.7772 46.537C40.6257 46.3061 40.5512 46.0176 40.5536 45.6713V40.2535ZM48.3439 43.0454L47.1536 43.1752C47.12 43.055 47.061 42.942 46.9769 42.8362C46.8951 42.7303 46.7845 42.645 46.645 42.5801C46.5056 42.5151 46.3348 42.4827 46.1328 42.4827C45.8611 42.4827 45.6326 42.5416 45.4475 42.6594C45.2647 42.7772 45.1745 42.9299 45.177 43.1175C45.1745 43.2786 45.2335 43.4097 45.3537 43.5107C45.4763 43.6117 45.6783 43.6946 45.9597 43.7596L46.9047 43.9616C47.429 44.0746 47.8185 44.2537 48.0734 44.499C48.3307 44.7443 48.4606 45.0653 48.463 45.4621C48.4606 45.8108 48.3584 46.1186 48.1564 46.3855C47.9568 46.65 47.679 46.8568 47.3232 47.0059C46.9673 47.155 46.5585 47.2295 46.0968 47.2295C45.4186 47.2295 44.8728 47.0877 44.4591 46.8039C44.0455 46.5178 43.7991 46.1198 43.7197 45.61L44.993 45.4873C45.0507 45.7374 45.1733 45.9262 45.3609 46.0536C45.5485 46.1811 45.7926 46.2448 46.0931 46.2448C46.4034 46.2448 46.6522 46.1811 46.8398 46.0536C47.0298 45.9262 47.1248 45.7687 47.1248 45.5811C47.1248 45.4224 47.0634 45.2914 46.9408 45.188C46.8206 45.0846 46.633 45.0052 46.3781 44.9499L45.4331 44.7515C44.9016 44.6409 44.5084 44.4545 44.2535 44.1924C43.9986 43.9279 43.8724 43.5936 43.8748 43.1896C43.8724 42.8482 43.965 42.5524 44.1525 42.3023C44.3425 42.0498 44.6058 41.855 44.9425 41.718C45.2816 41.5785 45.6723 41.5088 46.1148 41.5088C46.7641 41.5088 47.2751 41.647 47.6478 41.9236C48.0229 42.2001 48.255 42.574 48.3439 43.0454Z" fill="black"/>
</svg>
