<svg width="154" height="81" viewBox="0 0 154 81" fill="none" xmlns="http://www.w3.org/2000/svg">
<g style="mix-blend-mode:multiply" opacity="0.4">
<path d="M23.8166 63.7193C23.1599 55.9201 20.9227 50.7275 17.8236 43.3182C14.7449 35.9295 12.3846 27.925 14.8681 20.3721C17.9262 11.0541 28.2294 4.05535 39.6408 1.69507C51.0318 -0.665222 63.2848 1.1409 74.0189 5.06103C83.0086 8.32439 91.3619 13.0655 101.008 14.6459C110.121 16.1236 119.747 14.6459 128.696 16.7188C141.79 19.7359 151.19 30.6958 151.211 41.861C151.231 53.0262 142.447 63.6578 130.214 68.563C126.294 70.1229 121.943 71.1901 117.633 70.7181C110.922 70.0203 105.38 65.8538 98.7096 64.9713C90.3973 63.863 82.5981 68.0294 75.4762 71.7238C69.2573 74.9461 62.7717 78.0042 55.6497 79.5435C48.5484 81.0828 40.6465 80.9802 34.1609 78.1273C27.6752 75.2745 22.9957 69.3224 23.8577 63.3294" fill="white"/>
</g>
<path d="M151.211 38.5567L151.929 39.8703L153.243 40.5886L151.929 41.307L151.211 42.6205L150.492 41.307L149.179 40.5886L150.492 39.8703L151.211 38.5567Z" fill="white"/>
<path d="M25.233 14.7076L26.3618 16.7395L28.3937 17.8683L26.3618 18.9766L25.233 21.0085L24.1247 18.9766L22.0928 17.8683L24.1247 16.7395L25.233 14.7076Z" fill="white"/>
<g style="mix-blend-mode:multiply" opacity="0.3">
<path d="M4.81135 26.1188L3.4978 28.1712H6.12491L4.81135 26.1188Z" fill="#FD8970"/>
<path d="M3.99042 30.0596L3.14893 31.3732H4.81139L3.99042 30.0596Z" fill="#FD8970"/>
<path d="M7.39757 28.1097L5.73511 30.7163H9.06004L7.39757 28.1097Z" fill="#FD8970"/>
</g>
<path d="M142.406 29.7927H140.825C140.128 29.7927 139.553 29.2386 139.553 28.5407V26.9604C139.553 26.2625 140.128 25.6879 140.825 25.6879H142.406C143.104 25.6879 143.658 26.2625 143.658 26.9604V28.5407C143.658 29.2386 143.104 29.7927 142.406 29.7927Z" fill="#FFC20C"/>
<path d="M135.469 26.5088H133.396C132.493 26.5088 131.754 25.7905 131.754 24.8874V22.8145C131.754 21.9114 132.493 21.1725 133.396 21.1725H135.469C136.372 21.1725 137.09 21.9114 137.09 22.8145V24.8874C137.09 25.7905 136.372 26.5088 135.469 26.5088Z" fill="#FFE79E"/>
<path d="M24.8019 72.8116H23.8373C23.4268 72.8116 23.0984 72.4832 23.0984 72.0522V71.1081C23.0984 70.677 23.4268 70.3487 23.8373 70.3487H24.8019C25.2124 70.3487 25.5613 70.677 25.5613 71.1081V72.0522C25.5613 72.4832 25.2124 72.8116 24.8019 72.8116Z" fill="#FFC20C"/>
<path d="M28.2706 68.871H27.0186C26.485 68.871 26.054 68.44 26.054 67.8858V66.6544C26.054 66.1002 26.485 65.6692 27.0186 65.6692H28.2706C28.8042 65.6692 29.2557 66.1002 29.2557 66.6544V67.8858C29.2557 68.44 28.8042 68.871 28.2706 68.871Z" fill="#FFE79E"/>
<g style="mix-blend-mode:multiply">
<path d="M3.64136 55.7149H16.8384" stroke="white" stroke-width="0.985164" stroke-miterlimit="10" stroke-linecap="round"/>
</g>
<g style="mix-blend-mode:multiply">
<path d="M19.4656 55.7149H27.7163" stroke="white" stroke-width="0.985164" stroke-miterlimit="10" stroke-linecap="round"/>
</g>
<g style="mix-blend-mode:multiply">
<path d="M0.82959 51.5897H20.615" stroke="white" stroke-width="0.985164" stroke-miterlimit="10" stroke-linecap="round"/>
</g>
<g style="mix-blend-mode:multiply">
<path d="M22.6057 51.5897H25.2328" stroke="white" stroke-width="0.985164" stroke-miterlimit="10" stroke-linecap="round"/>
</g>
<g style="mix-blend-mode:multiply">
<path d="M6.10425 47.4641H19.6297" stroke="white" stroke-width="0.985164" stroke-miterlimit="10" stroke-linecap="round"/>
</g>
<g style="mix-blend-mode:multiply">
<path d="M4.13396 47.4641H1.48633" stroke="white" stroke-width="0.985164" stroke-miterlimit="10" stroke-linecap="round"/>
</g>
<g style="mix-blend-mode:multiply">
<path d="M5.44751 44.1803H22.6058" stroke="white" stroke-width="0.985164" stroke-miterlimit="10" stroke-linecap="round"/>
</g>
<path d="M21.641 33.1999C21.641 33.7746 21.1895 34.2261 20.6148 34.2261C20.0607 34.2261 19.5886 33.7746 19.5886 33.1999C19.5886 32.6252 20.0607 32.1737 20.6148 32.1737C21.1895 32.1737 21.641 32.6252 21.641 33.1999Z" fill="white"/>
<path d="M50.8061 77.4501C50.8061 78.3531 50.0672 79.092 49.1642 79.092C48.2406 79.092 47.5222 78.3531 47.5222 77.4501C47.5222 76.547 48.2406 75.8081 49.1642 75.8081C50.0672 75.8081 50.8061 76.547 50.8061 77.4501Z" fill="white"/>
<path d="M95.4668 12.0598V60.2097H34.1404V12.0598C34.1404 10.8694 35.105 9.90479 36.2954 9.90479H93.3118C94.5022 9.90479 95.4668 10.8694 95.4668 12.0598Z" fill="#FFE79E"/>
<path d="M58.8516 29.6287H60.4935C61.7044 29.6287 62.5459 28.8693 62.5459 27.761C62.5459 26.6322 61.7044 25.8728 60.4935 25.8728H58.8516V29.6287ZM59.5494 29.0335V26.468H60.4525C61.2939 26.468 61.8276 26.9811 61.8276 27.761C61.8276 28.541 61.2939 29.0335 60.4525 29.0335H59.5494ZM64.2494 29.0541V28.0073H66.0556V27.4326H64.2494V26.468H66.3019V25.8728H63.5516V29.6287H66.3634V29.0541H64.2494ZM67.4102 29.6287H70.0783V29.0335H68.108V25.8728H67.4102V29.6287ZM70.8993 29.6287H71.5971V25.8728H70.8993V29.6287ZM75.5788 25.8728L74.3268 28.7667L73.0749 25.8728H72.3155L73.9574 29.6287H74.6552L76.2766 25.8728H75.5788ZM77.6518 29.0541V28.0073H79.4579V27.4326H77.6518V26.468H79.6837V25.8728H76.9539V29.6287H79.7658V29.0541H77.6518ZM84.0143 29.6287L83.1523 28.3973C83.6654 28.192 83.9527 27.7816 83.9527 27.2069C83.9527 26.3859 83.3575 25.8728 82.3518 25.8728H80.8125V29.6287H81.5103V28.541H82.3518C82.4134 28.541 82.4544 28.541 82.516 28.541L83.2754 29.6287H84.0143ZM83.2549 27.2069C83.2549 27.6789 82.9265 27.9663 82.3108 27.9663H81.5103V26.468H82.3108C82.9265 26.468 83.2549 26.7348 83.2549 27.2069ZM88.037 25.8728H87.3392L86.2309 27.6995L85.1226 25.8728H84.3837L85.8615 28.3152V29.6287H86.5593V28.3152L88.037 25.8728Z" fill="#FFC20C"/>
<g style="mix-blend-mode:multiply">
<path d="M95.4668 60.2097H34.1404V46.0274H95.4668V60.2097Z" fill="#FFE79E"/>
</g>
<path d="M95.4668 60.2097H33.2373C32.601 60.2097 32.0674 59.6966 32.0674 59.0399C32.0674 58.4036 32.601 57.8905 33.2373 57.8905H95.4668V60.2097Z" fill="black"/>
<path d="M61.8276 60.2098H37.4653C37.4653 53.4779 42.9043 48.0184 49.6362 48.0184C56.3682 48.0184 61.8276 53.4779 61.8276 60.2098Z" fill="#231F20"/>
<path d="M40.9341 60.2097C40.9341 55.4071 44.8337 51.5074 49.6364 51.5074C54.439 51.5074 58.3386 55.4071 58.3386 60.2097C58.3386 65.0124 54.439 68.912 49.6364 68.912C44.8337 68.912 40.9341 65.0124 40.9341 60.2097Z" fill="black"/>
<path d="M44.7104 60.2098C44.7104 57.48 46.9271 55.2839 49.6363 55.2839C52.366 55.2839 54.5826 57.48 54.5826 60.2098C54.5826 62.9395 52.366 65.1356 49.6363 65.1356C46.9271 65.1356 44.7104 62.9395 44.7104 60.2098Z" fill="#FFE79E"/>
<path d="M45.6545 60.2097C45.6545 58.0136 47.4401 56.2075 49.6362 56.2075C51.8529 56.2075 53.6385 58.0136 53.6385 60.2097C53.6385 62.4058 51.8529 64.1914 49.6362 64.1914C47.4401 64.1914 45.6545 62.4058 45.6545 60.2097Z" stroke="#FFC20C" stroke-width="0.328388" stroke-miterlimit="10"/>
<path d="M136.474 45.3295V60.2096H95.4668V17.8681H109.587C115.909 17.8681 121.594 21.7267 123.913 27.5966L127.177 35.9294L132.472 38.7002C134.935 39.9932 136.474 42.5588 136.474 45.3295Z" fill="#FFC20C"/>
<path d="M137.706 60.2097H95.4668V57.8905H137.706C138.362 57.8905 138.876 58.4036 138.876 59.0399C138.876 59.6966 138.362 60.2097 137.706 60.2097Z" fill="black"/>
<path d="M134.442 60.2098H110.08C110.08 53.4779 115.519 48.0184 122.251 48.0184C128.983 48.0184 134.442 53.4779 134.442 60.2098Z" fill="#231F20"/>
<path d="M113.549 60.2097C113.549 55.4071 117.448 51.5074 122.251 51.5074C127.054 51.5074 130.953 55.4071 130.953 60.2097C130.953 65.0124 127.054 68.912 122.251 68.912C117.448 68.912 113.549 65.0124 113.549 60.2097Z" fill="black"/>
<path d="M117.325 60.2098C117.325 57.48 119.542 55.2839 122.251 55.2839C124.981 55.2839 127.197 57.48 127.197 60.2098C127.197 62.9395 124.981 65.1356 122.251 65.1356C119.542 65.1356 117.325 62.9395 117.325 60.2098Z" fill="#FFE79E"/>
<path d="M118.269 60.2097C118.269 58.0136 120.055 56.2075 122.251 56.2075C124.468 56.2075 126.253 58.0136 126.253 60.2097C126.253 62.4058 124.468 64.1914 122.251 64.1914C120.055 64.1914 118.269 62.4058 118.269 60.2097Z" stroke="#FFC20C" stroke-width="0.328388" stroke-miterlimit="10"/>
<path d="M106.612 41.2658H101.747C101.378 41.2658 101.07 40.958 101.07 40.5885C101.07 40.2191 101.378 39.9112 101.747 39.9112H106.612C106.981 39.9112 107.289 40.2191 107.289 40.5885C107.289 40.958 106.981 41.2658 106.612 41.2658Z" fill="#231F20"/>
<path d="M101.07 37.5716V21.5421H113.015C115.15 21.5421 117.079 22.7736 117.982 24.6823L123.38 36.0733C123.708 36.7711 123.195 37.5716 122.436 37.5716H101.07Z" fill="white"/>
<mask id="mask0_522_3010" style="mask-type:luminance" maskUnits="userSpaceOnUse" x="101" y="21" width="23" height="17">
<path d="M101.068 37.5633V21.5461H113.017C115.139 21.5461 117.071 22.7694 117.98 24.6863L123.372 36.0773C123.698 36.769 123.195 37.5633 122.429 37.5633H101.068Z" fill="white"/>
</mask>
<g mask="url(#mask0_522_3010)">
<path d="M118.803 37.5715H117.079V32.5225C117.079 32.0299 117.448 31.6605 117.941 31.6605C118.413 31.6605 118.803 32.0299 118.803 32.5225V37.5715Z" fill="#1A1A1A"/>
<path d="M116.525 38.2079L116.299 40.445C116.107 40.4176 115.916 40.3834 115.724 40.3424C115.498 40.2808 115.293 40.2398 115.088 40.1577C114.246 39.8498 113.528 39.3777 112.912 38.8236C112.297 38.2694 111.783 37.6332 111.352 36.9764C110.942 36.2991 110.593 35.6218 110.285 34.965L112.789 33.8978C113.241 35.1292 113.795 36.2581 114.595 37.0585C114.985 37.469 115.437 37.7974 115.909 38.0231C116.032 38.0642 116.155 38.1052 116.278 38.1463L116.525 38.2079Z" fill="#FF8773"/>
<g style="mix-blend-mode:multiply" opacity="0.2">
<path d="M112.912 38.8234C113.104 39.0013 113.309 39.1655 113.528 39.316V36.8531C113.528 35.7653 113.179 34.7801 112.584 33.9797L110.285 34.9648C110.593 35.6216 110.942 36.2989 111.352 36.9762C111.783 37.633 112.297 38.2692 112.912 38.8234Z" fill="#FF8773"/>
</g>
<path d="M109.567 32.6662H107.166L107.432 28.8281H109.321L109.567 32.6662Z" fill="#FF8773"/>
<g style="mix-blend-mode:multiply" opacity="0.7">
<path d="M107.391 29.1976C107.802 30.1622 108.561 30.9011 109.464 31.1679L109.321 28.8281H107.432L107.391 29.1976Z" fill="#FF8773"/>
</g>
<path d="M105.565 26.201C105.565 26.201 105.441 28.9512 107.596 29.4643C107.186 28.2945 107.206 26.201 107.206 26.201H105.565Z" fill="black"/>
<path d="M106.776 27.2273C106.653 25.2364 107.946 23.5535 109.649 23.4508C111.373 23.3482 112.851 24.867 112.953 26.8579C113.077 28.8487 111.784 30.5317 110.08 30.6343C108.356 30.7369 106.878 29.1976 106.776 27.2273Z" fill="#FF8773"/>
<path d="M113.405 34.6366L110.449 36.689L109.013 34.6366C108.438 33.8156 108.643 32.6868 109.464 32.1326C110.285 31.558 111.393 31.7632 111.968 32.5842L113.405 34.6366Z" fill="#FFE79E"/>
<g style="mix-blend-mode:multiply">
<path d="M109.013 34.6365L110.449 36.6889L113.056 34.9033C112.379 33.4256 111.003 32.3994 109.444 32.1531C108.643 32.7072 108.458 33.8155 109.013 34.6365Z" fill="#FFE79E"/>
</g>
<path d="M111.927 47.2793L107.904 46.7662C107.391 46.6841 106.981 46.2736 106.94 45.74L106.098 34.4516C105.996 33.1381 107.042 32.0092 108.356 32.0092C111.024 32.0092 113.2 34.1848 113.2 36.853V46.171C113.2 46.8277 112.604 47.3614 111.927 47.2793Z" fill="#FFE79E"/>
<path d="M118.269 33.2819C118.269 33.1793 118.187 33.0972 118.084 33.0972C117.982 33.0972 117.92 33.1793 117.92 33.2819C117.879 33.7129 117.756 34.1234 117.51 34.4723L117.469 34.4518C117.653 34.1439 117.797 33.795 117.838 33.4051C117.838 33.323 117.736 33.2203 117.653 33.2203C117.551 33.2203 117.469 33.323 117.469 33.4051C117.448 33.5898 117.387 33.795 117.325 33.9592C117.264 34.1029 117.181 34.2671 117.079 34.3902C117.065 34.4039 117.051 34.4176 117.038 34.4313C116.997 34.4723 116.935 34.5339 116.935 34.5339C116.935 34.5476 116.935 34.5544 116.935 34.5544C116.921 34.5681 116.908 34.5818 116.894 34.5955C116.894 34.5955 116.894 34.5886 116.894 34.5749C116.894 34.5339 116.894 34.4997 116.894 34.4723C116.894 34.4586 116.894 34.445 116.894 34.4313C116.894 34.4176 116.894 34.3971 116.894 34.3697C116.921 34.2876 116.942 34.2123 116.956 34.1439C116.976 34.0618 116.935 33.9797 116.853 33.9592C116.791 33.9387 116.709 33.9797 116.689 34.0618C116.627 34.226 116.586 34.4107 116.607 34.5955C116.607 34.7049 116.634 34.8075 116.689 34.9033C116.1 35.8474 115.464 36.7573 114.78 37.6331C114.39 38.1667 113.98 38.6182 113.569 38.8645C113.364 39.0082 113.159 39.0697 112.912 39.1313C112.687 39.1724 112.44 39.1929 112.194 39.1724C111.948 39.1518 111.701 39.0903 111.455 39.0082C111.332 38.9466 111.229 38.9056 111.127 38.844C111.004 38.7893 110.887 38.7208 110.778 38.6387C110.367 38.3514 109.977 37.9204 109.67 37.4483C109.054 36.5042 108.746 35.2933 108.52 34.0003L105.873 34.5339C106.037 35.2522 106.242 35.9911 106.529 36.73C106.817 37.4483 107.186 38.1872 107.679 38.8645C108.192 39.5213 108.808 40.137 109.546 40.5885C109.738 40.698 109.936 40.7938 110.142 40.8759C110.347 40.9717 110.559 41.0538 110.778 41.1222C111.209 41.2453 111.64 41.3069 112.091 41.3274C112.543 41.3274 112.994 41.2864 113.446 41.1427C113.877 41.0195 114.329 40.8143 114.698 40.5475C115.067 40.2807 115.375 39.9728 115.642 39.665C115.888 39.3366 116.114 39.0287 116.319 38.7208C117.031 37.6536 117.688 36.5521 118.29 35.4164C118.303 35.4028 118.317 35.3822 118.331 35.3549C118.557 35.0265 118.721 34.6776 118.803 34.3081C118.844 34.1234 118.577 34.0413 118.536 34.226C118.468 34.4723 118.372 34.7118 118.249 34.9444C118.235 34.917 118.214 34.8965 118.187 34.8828C118.413 34.4928 118.577 34.0618 118.639 33.6308C118.639 33.5282 118.598 33.4256 118.495 33.4051C118.413 33.3845 118.29 33.4256 118.29 33.5282C118.228 33.9387 118.105 34.3287 117.879 34.6981L117.818 34.657C118.084 34.2466 118.249 33.7745 118.269 33.2819Z" fill="#FF8773"/>
<path d="M109.649 36.0527L106.242 37.2226L105.421 34.8418C105.093 33.9182 105.585 32.892 106.529 32.5636C107.473 32.2352 108.5 32.7278 108.828 33.6719L109.649 36.0527Z" fill="#FFE79E"/>
<path d="M112.05 23.8408C112.153 24.2308 111.886 24.6207 111.537 24.826C111.188 25.0107 110.778 25.0312 110.388 25.0928C109.752 25.1954 109.136 25.3596 108.582 25.6469C108.028 25.9548 107.514 26.3653 107.166 26.8989C107.022 27.1247 106.878 27.3915 106.632 27.4941C106.324 27.5967 105.996 27.412 105.831 27.1452C105.667 26.8579 105.667 26.5295 105.667 26.2216C105.708 25.1749 106.016 24.0871 106.796 23.4098C107.268 22.9993 107.863 22.7735 108.479 22.6504C109.382 22.4657 110.367 22.4862 111.188 22.8967C111.435 22.9993 111.619 23.2866 111.783 23.4919C111.948 23.7176 112.091 23.8818 112.009 24.1487" fill="black"/>
<path d="M111.927 23.8818C112.091 24.6001 111.229 24.8669 110.675 24.949C110.121 25.0311 109.587 25.1132 109.054 25.3185C108.602 25.5032 108.171 25.7289 107.802 26.0368C107.412 26.3652 107.186 26.7552 106.878 27.1451C106.653 27.4325 106.324 27.494 106.057 27.2272C105.791 26.9809 105.77 26.591 105.77 26.2626C105.791 25.7495 105.873 25.2364 106.037 24.7643C106.447 23.6149 107.371 22.9787 108.52 22.7529C109.156 22.6298 109.854 22.6093 110.491 22.7529C110.819 22.835 111.168 22.9376 111.414 23.2045C111.599 23.4097 111.968 23.7997 111.907 24.1075C111.866 24.2512 112.091 24.3128 112.112 24.1691C112.174 23.9023 112.091 23.7381 111.927 23.5123C111.763 23.2866 111.599 23.0197 111.373 22.8556C110.839 22.4861 110.039 22.404 109.423 22.4245C108.13 22.4451 106.755 22.9171 106.098 24.1075C105.791 24.6206 105.647 25.2158 105.585 25.8316C105.524 26.3857 105.483 27.1041 105.996 27.4735C106.427 27.7814 106.837 27.5966 107.125 27.1862C107.535 26.591 107.966 26.0984 108.643 25.7495C109.054 25.5442 109.505 25.38 109.977 25.2979C110.367 25.1953 110.778 25.1748 111.168 25.0722C111.743 24.9285 112.276 24.477 112.153 23.8202C112.112 23.6765 111.907 23.7381 111.927 23.8818Z" fill="black"/>
<path d="M112.81 27.8224C111.352 28.6228 109.526 27.925 109.054 27.6992C108.992 27.6787 108.931 27.7197 108.91 27.7813C108.664 29.1564 109.115 30.1006 109.526 30.6547C109.553 30.6821 109.581 30.6958 109.608 30.6958C109.745 30.7094 109.888 30.7094 110.039 30.6958C111.455 30.6137 112.625 29.4643 112.953 27.9455C112.974 27.8634 112.892 27.7813 112.81 27.8224Z" fill="white"/>
<path d="M106.652 26.8577C107.104 27.0492 107.542 27.275 107.966 27.535C108.171 27.6581 108.376 27.7881 108.582 27.925C108.766 28.0481 108.951 28.2328 108.972 28.4791C108.972 28.6228 109.218 28.6228 109.218 28.4791C109.177 27.925 108.602 27.6376 108.192 27.3913C107.726 27.104 107.234 26.8509 106.714 26.6319C106.57 26.5704 106.509 26.8166 106.652 26.8577Z" fill="white"/>
<g style="mix-blend-mode:multiply" opacity="0.8">
<path d="M108.848 28.2125C108.766 29.3414 109.156 30.1623 109.526 30.6549C109.553 30.6823 109.58 30.696 109.608 30.696C109.745 30.7096 109.888 30.7096 110.039 30.696C110.716 30.6549 111.352 30.3676 111.845 29.916C110.162 30.265 109.095 28.6025 108.848 28.2125Z" fill="#E6E6E6"/>
</g>
<path d="M107.227 27.3709C107.35 27.884 107.186 28.3766 106.837 28.4587C106.509 28.5613 106.119 28.2124 105.975 27.6993C105.852 27.1862 106.016 26.7141 106.345 26.6115C106.694 26.5294 107.084 26.8578 107.227 27.3709Z" fill="#FF8773"/>
<g style="mix-blend-mode:multiply">
<path d="M106.201 27.1246C106.222 27.0425 106.283 26.9809 106.365 26.9399C106.468 26.9194 106.57 26.9399 106.653 26.9809C106.837 27.1041 106.899 27.3299 106.919 27.5351C106.94 27.5967 107.022 27.5967 107.022 27.5351C107.001 27.2888 106.899 27.0015 106.653 26.8783C106.55 26.8373 106.427 26.8167 106.324 26.8578C106.222 26.8988 106.139 26.9809 106.098 27.1041C106.078 27.1657 106.18 27.1862 106.201 27.1246Z" fill="#FF8773"/>
<path d="M106.571 26.878C106.386 26.9601 106.365 27.1859 106.345 27.3706C106.345 27.4322 106.447 27.4322 106.447 27.3706C106.447 27.2269 106.468 27.0422 106.632 26.9601C106.653 26.9601 106.653 26.9191 106.653 26.8986C106.632 26.878 106.591 26.878 106.571 26.878Z" fill="#FF8773"/>
</g>
<path d="M110.183 27.4736C110.183 27.6378 110.101 27.7609 110.018 27.7609C109.936 27.7609 109.854 27.6378 109.854 27.4736C109.854 27.3299 109.936 27.2068 110.018 27.2068C110.101 27.2068 110.183 27.3299 110.183 27.4736Z" fill="black" stroke="black" stroke-width="0.082097" stroke-miterlimit="10"/>
<path d="M112.584 27.3708C112.584 27.5145 112.502 27.6376 112.42 27.6376C112.338 27.6376 112.256 27.5145 112.256 27.3708C112.256 27.2066 112.338 27.0835 112.42 27.0835C112.502 27.0835 112.584 27.2066 112.584 27.3708Z" fill="black" stroke="black" stroke-width="0.082097" stroke-miterlimit="10"/>
<path d="M109.567 26.7961C109.649 26.6935 109.772 26.6319 109.895 26.6319C110.018 26.6114 110.142 26.6524 110.224 26.7551C110.285 26.7961 110.367 26.714 110.306 26.673C110.203 26.5498 110.039 26.4882 109.895 26.5088C109.731 26.5088 109.587 26.5909 109.485 26.714C109.444 26.7551 109.526 26.8577 109.567 26.7961Z" fill="#1A1A1A"/>
<path d="M111.927 26.6115C112.009 26.5089 112.112 26.4473 112.235 26.4473C112.379 26.4268 112.502 26.4883 112.584 26.5704C112.646 26.6115 112.728 26.5294 112.666 26.4883C112.564 26.3652 112.399 26.3036 112.235 26.3241C112.091 26.3241 111.948 26.4062 111.845 26.5294C111.804 26.5704 111.886 26.673 111.927 26.6115Z" fill="#1A1A1A"/>
<path d="M108.664 25.2775C108.849 25.0723 109.095 24.9492 109.341 24.8465C109.464 24.8055 109.587 24.785 109.731 24.7644C109.854 24.7439 109.998 24.7644 110.121 24.7644C109.608 24.826 109.095 24.9697 108.664 25.2775Z" fill="white"/>
<path d="M112.953 25.4622H105.565C105.565 23.6971 107.227 22.2604 109.259 22.2604C111.311 22.2604 112.953 23.6971 112.953 25.4622Z" fill="#FFE79E"/>
<g style="mix-blend-mode:multiply">
<path d="M107.207 32.4609C107.453 32.4198 107.72 32.4814 107.966 32.584C108.192 32.7072 108.376 32.8919 108.541 33.0971C108.705 33.3024 108.828 33.5281 108.91 33.7539C108.951 33.877 108.992 34.0002 109.033 34.1233C109.054 34.2465 109.095 34.3696 109.095 34.4928C108.992 34.267 108.91 34.0412 108.807 33.8155C108.684 33.5897 108.582 33.3845 108.417 33.1997C108.274 32.9945 108.089 32.8303 107.904 32.7071C107.699 32.584 107.453 32.4814 107.207 32.4609Z" fill="#FFE79E"/>
</g>
<path d="M115.047 25.9752H105.503C105.359 25.9752 105.236 25.8726 105.236 25.7289C105.236 25.5852 105.359 25.4621 105.503 25.4621H115.047C115.191 25.4621 115.314 25.5852 115.314 25.7289C115.314 25.8726 115.191 25.9752 115.047 25.9752Z" fill="#FFC20C"/>
<g style="mix-blend-mode:multiply" opacity="0.5">
<path d="M105.565 25.4622H110.737C108.192 25.0928 106.878 24.2513 106.242 23.6561C105.811 24.1692 105.565 24.7849 105.565 25.4622Z" fill="#FFE79E"/>
</g>
</g>
<path d="M137.439 53.0671H136.741C136.598 53.0671 136.454 52.9439 136.454 52.7797V47.8129C136.454 47.6692 136.598 47.5461 136.741 47.5461H137.439C137.583 47.5461 137.706 47.6692 137.706 47.8129V52.7797C137.706 52.9439 137.583 53.0671 137.439 53.0671Z" fill="#FFE79E"/>
<path d="M137.706 52.821V47.9568C138.753 47.9568 139.574 48.7983 139.574 49.8245V50.9738C139.574 52 138.753 52.821 137.706 52.821Z" fill="white"/>
<path d="M137.706 52.821V47.9568C138.753 47.9568 139.574 48.7983 139.574 49.8245V50.9738C139.574 52 138.753 52.821 137.706 52.821Z" fill="white"/>
<g style="mix-blend-mode:multiply" opacity="0.8">
<path d="M137.706 49.8244V52.821C138.568 52.821 139.286 52.2668 139.512 51.4869C138.506 51.2816 137.993 50.5017 137.706 49.8244Z" fill="#E6E6E6"/>
</g>
<g style="mix-blend-mode:multiply" opacity="0.3">
<path d="M95.4668 16.0621C76.2151 45.8017 46.065 51.5074 34.1404 52.5747V60.2097H95.4668V16.0621Z" fill="#FFE79E"/>
</g>
<path d="M51.7708 18.5248H70.4683" stroke="#FFC20C" stroke-width="0.656776" stroke-miterlimit="10" stroke-linecap="round"/>
<path d="M42.0012 21.9525H70.4683" stroke="#FFC20C" stroke-width="0.656776" stroke-miterlimit="10" stroke-linecap="round"/>
<path d="M42.0012 26.1188H57.4354" stroke="#FFC20C" stroke-width="0.656776" stroke-miterlimit="10" stroke-linecap="round"/>
<path d="M75.3419 20.0313C75.3419 20.4742 75.2579 20.8511 75.09 21.1618C74.9234 21.4725 74.696 21.7099 74.4077 21.8738C74.1208 22.0365 73.7982 22.1178 73.4398 22.1178C73.0789 22.1178 72.7549 22.0358 72.468 21.8718C72.181 21.7079 71.9543 21.4705 71.7877 21.1598C71.621 20.8491 71.5377 20.4729 71.5377 20.0313C71.5377 19.5883 71.621 19.2114 71.7877 18.9007C71.9543 18.59 72.181 18.3533 72.468 18.1907C72.7549 18.0267 73.0789 17.9447 73.4398 17.9447C73.7982 17.9447 74.1208 18.0267 74.4077 18.1907C74.696 18.3533 74.9234 18.59 75.09 18.9007C75.2579 19.2114 75.3419 19.5883 75.3419 20.0313ZM74.4712 20.0313C74.4712 19.7443 74.4282 19.5023 74.3423 19.3053C74.2577 19.1083 74.138 18.9589 73.9833 18.8571C73.8286 18.7553 73.6474 18.7044 73.4398 18.7044C73.2322 18.7044 73.0511 18.7553 72.8964 18.8571C72.7417 18.9589 72.6213 19.1083 72.5354 19.3053C72.4508 19.5023 72.4085 19.7443 72.4085 20.0313C72.4085 20.3182 72.4508 20.5602 72.5354 20.7572C72.6213 20.9542 72.7417 21.1036 72.8964 21.2054C73.0511 21.3072 73.2322 21.3581 73.4398 21.3581C73.6474 21.3581 73.8286 21.3072 73.9833 21.2054C74.138 21.1036 74.2577 20.9542 74.3423 20.7572C74.4282 20.5602 74.4712 20.3182 74.4712 20.0313ZM76.8072 20.301V22.0623H75.9622V19.0157H76.7675V19.5533H76.8032C76.8706 19.3761 76.9837 19.2359 77.1423 19.1328C77.301 19.0283 77.4934 18.9761 77.7195 18.9761C77.9311 18.9761 78.1155 19.0224 78.2729 19.1149C78.4302 19.2075 78.5525 19.3397 78.6398 19.5116C78.7271 19.6822 78.7707 19.8858 78.7707 20.1225V22.0623H77.9258V20.2732C77.9271 20.0868 77.8795 19.9413 77.783 19.8369C77.6865 19.7311 77.5536 19.6782 77.3843 19.6782C77.2706 19.6782 77.1701 19.7027 77.0828 19.7516C76.9969 19.8005 76.9295 19.8719 76.8805 19.9658C76.8329 20.0584 76.8085 20.1701 76.8072 20.301ZM80.825 22.1218C80.5117 22.1218 80.2419 22.0583 80.0158 21.9314C79.791 21.8031 79.6178 21.6219 79.4961 21.3879C79.3745 21.1525 79.3137 20.8742 79.3137 20.5529C79.3137 20.2395 79.3745 19.9645 79.4961 19.7278C79.6178 19.4911 79.789 19.3066 80.0098 19.1744C80.232 19.0422 80.4925 18.9761 80.7913 18.9761C80.9923 18.9761 81.1794 19.0085 81.3526 19.0733C81.5272 19.1367 81.6792 19.2326 81.8088 19.3609C81.9397 19.4891 82.0415 19.6504 82.1142 19.8448C82.187 20.0379 82.2233 20.264 82.2233 20.5231V20.7552H79.6509V20.2316H81.428C81.428 20.1099 81.4015 20.0022 81.3486 19.9083C81.2958 19.8144 81.2224 19.741 81.1285 19.6881C81.0359 19.6339 80.9282 19.6068 80.8052 19.6068C80.6769 19.6068 80.5632 19.6366 80.464 19.6961C80.3662 19.7542 80.2895 19.8329 80.234 19.9321C80.1784 20.0299 80.15 20.139 80.1487 20.2593V20.7572C80.1487 20.9079 80.1765 21.0382 80.232 21.1479C80.2888 21.2577 80.3688 21.3423 80.472 21.4018C80.5751 21.4613 80.6974 21.491 80.8389 21.491C80.9328 21.491 81.0187 21.4778 81.0968 21.4514C81.1748 21.4249 81.2415 21.3853 81.2971 21.3324C81.3526 21.2795 81.3949 21.2147 81.424 21.138L82.2055 21.1896C82.1658 21.3773 82.0845 21.5413 81.9615 21.6814C81.8399 21.8203 81.6825 21.9287 81.4895 22.0067C81.2977 22.0834 81.0763 22.1218 80.825 22.1218ZM82.7906 22.0623V18.0002H85.5277V18.7083H83.6494V19.6762H85.3869V20.3843H83.6494V21.3542H85.5356V22.0623H82.7906ZM86.9443 18.0002L87.9261 21.0864H87.9638L88.9476 18.0002H89.8996L88.4993 22.0623H87.3926L85.9903 18.0002H86.9443Z" fill="#FFBD0B"/>
</svg>
