<svg width="154" height="70" viewBox="0 0 154 70" fill="none" xmlns="http://www.w3.org/2000/svg">
<path d="M151.444 28.7677L152.162 30.0813L153.476 30.7996L152.162 31.518L151.444 32.8315L150.726 31.518L149.412 30.7996L150.726 30.0813L151.444 28.7677Z" fill="white"/>
<path d="M25.4664 4.91846L26.5952 6.95036L28.6271 8.0792L26.5952 9.1875L25.4664 11.2194L24.3581 9.1875L22.3262 8.0792L24.3581 6.95036L25.4664 4.91846Z" fill="white"/>
<path d="M142.639 20.0037H141.059C140.361 20.0037 139.786 19.4495 139.786 18.7517V17.1713C139.786 16.4735 140.361 15.8988 141.059 15.8988H142.639C143.337 15.8988 143.891 16.4735 143.891 17.1713V18.7517C143.891 19.4495 143.337 20.0037 142.639 20.0037Z" fill="#FFC20C"/>
<path d="M135.702 16.7197H133.629C132.726 16.7197 131.987 16.0014 131.987 15.0983V13.0254C131.987 12.1223 132.726 11.3834 133.629 11.3834H135.702C136.605 11.3834 137.323 12.1223 137.323 13.0254V15.0983C137.323 16.0014 136.605 16.7197 135.702 16.7197Z" fill="#FFE79E"/>
<path d="M25.0353 63.0225H24.0707C23.6602 63.0225 23.3318 62.6941 23.3318 62.2631V61.319C23.3318 60.8879 23.6602 60.5596 24.0707 60.5596H25.0353C25.4458 60.5596 25.7947 60.8879 25.7947 61.319V62.2631C25.7947 62.6941 25.4458 63.0225 25.0353 63.0225Z" fill="#FFC20C"/>
<path d="M28.504 59.0819H27.252C26.7184 59.0819 26.2874 58.6509 26.2874 58.0968V56.8653C26.2874 56.3111 26.7184 55.8801 27.252 55.8801H28.504C29.0376 55.8801 29.4891 56.3111 29.4891 56.8653V58.0968C29.4891 58.6509 29.0376 59.0819 28.504 59.0819Z" fill="#FFE79E"/>
<g style="mix-blend-mode:multiply">
<path d="M3.87476 45.9258H17.0718" stroke="white" stroke-width="0.985164" stroke-miterlimit="10" stroke-linecap="round"/>
</g>
<g style="mix-blend-mode:multiply">
<path d="M19.699 45.9258H27.9497" stroke="white" stroke-width="0.985164" stroke-miterlimit="10" stroke-linecap="round"/>
</g>
<g style="mix-blend-mode:multiply">
<path d="M1.06299 41.8007H20.8484" stroke="white" stroke-width="0.985164" stroke-miterlimit="10" stroke-linecap="round"/>
</g>
<g style="mix-blend-mode:multiply">
<path d="M22.8392 41.8007H25.4663" stroke="white" stroke-width="0.985164" stroke-miterlimit="10" stroke-linecap="round"/>
</g>
<g style="mix-blend-mode:multiply">
<path d="M4.36735 37.675H1.71973" stroke="white" stroke-width="0.985164" stroke-miterlimit="10" stroke-linecap="round"/>
</g>
<g style="mix-blend-mode:multiply">
<path d="M5.68091 34.3912H22.8392" stroke="white" stroke-width="0.985164" stroke-miterlimit="10" stroke-linecap="round"/>
</g>
<path d="M51.0395 67.661C51.0395 68.564 50.3006 69.3029 49.3976 69.3029C48.474 69.3029 47.7556 68.564 47.7556 67.661C47.7556 66.7579 48.474 66.019 49.3976 66.019C50.3006 66.019 51.0395 66.7579 51.0395 67.661Z" fill="white"/>
<path d="M95.7003 2.27077V50.4206H34.3739V2.27077C34.3739 1.08036 35.3385 0.115723 36.5289 0.115723H93.5453C94.7357 0.115723 95.7003 1.08036 95.7003 2.27077Z" fill="#FFE79E"/>
<path d="M59.085 19.8397H60.7269C61.9378 19.8397 62.7793 19.0803 62.7793 17.972C62.7793 16.8431 61.9378 16.0837 60.7269 16.0837H59.085V19.8397ZM59.7828 19.2445V16.6789H60.6858C61.5273 16.6789 62.061 17.1921 62.061 17.972C62.061 18.7519 61.5273 19.2445 60.6858 19.2445H59.7828ZM64.4828 19.265V18.2183H66.289V17.6436H64.4828V16.6789H66.5353V16.0837H63.785V19.8397H66.5968V19.265H64.4828ZM67.6436 19.8397H70.3117V19.2445H68.3414V16.0837H67.6436V19.8397ZM71.1327 19.8397H71.8305V16.0837H71.1327V19.8397ZM75.8122 16.0837L74.5602 18.9777L73.3083 16.0837H72.5489L74.1908 19.8397H74.8886L76.51 16.0837H75.8122ZM77.8852 19.265V18.2183H79.6913V17.6436H77.8852V16.6789H79.9171V16.0837H77.1873V19.8397H79.9992V19.265H77.8852ZM84.2477 19.8397L83.3857 18.6082C83.8988 18.403 84.1861 17.9925 84.1861 17.4178C84.1861 16.5968 83.5909 16.0837 82.5852 16.0837H81.0459V19.8397H81.7437V18.7519H82.5852C82.6468 18.7519 82.6878 18.7519 82.7494 18.7519L83.5088 19.8397H84.2477ZM83.4883 17.4178C83.4883 17.8899 83.1599 18.1772 82.5442 18.1772H81.7437V16.6789H82.5442C83.1599 16.6789 83.4883 16.9458 83.4883 17.4178ZM88.2704 16.0837H87.5726L86.4643 17.9104L85.356 16.0837H84.6171L86.0949 18.5261V19.8397H86.7927V18.5261L88.2704 16.0837Z" fill="#FFC20C"/>
<g style="mix-blend-mode:multiply">
<path d="M95.7003 50.4206H34.3739V36.2384H95.7003V50.4206Z" fill="#FFE79E"/>
</g>
<path d="M95.7003 50.4207H33.4708C32.8345 50.4207 32.3009 49.9076 32.3009 49.2508C32.3009 48.6145 32.8345 48.1014 33.4708 48.1014H95.7003V50.4207Z" fill="black"/>
<path d="M62.061 50.4208H37.6987C37.6987 43.6888 43.1377 38.2294 49.8696 38.2294C56.6016 38.2294 62.061 43.6888 62.061 50.4208Z" fill="#231F20"/>
<path d="M41.1674 50.4207C41.1674 45.618 45.067 41.7184 49.8696 41.7184C54.6723 41.7184 58.5719 45.618 58.5719 50.4207C58.5719 55.2233 54.6723 59.123 49.8696 59.123C45.067 59.123 41.1674 55.2233 41.1674 50.4207Z" fill="black"/>
<path d="M44.9438 50.4207C44.9438 47.691 47.1605 45.4949 49.8697 45.4949C52.5994 45.4949 54.816 47.691 54.816 50.4207C54.816 53.1504 52.5994 55.3465 49.8697 55.3465C47.1605 55.3465 44.9438 53.1504 44.9438 50.4207Z" fill="#FFE79E"/>
<path d="M45.8879 50.4207C45.8879 48.2246 47.6735 46.4185 49.8696 46.4185C52.0863 46.4185 53.8719 48.2246 53.8719 50.4207C53.8719 52.6168 52.0863 54.4024 49.8696 54.4024C47.6735 54.4024 45.8879 52.6168 45.8879 50.4207Z" stroke="#FFC20C" stroke-width="0.328388" stroke-miterlimit="10"/>
<path d="M136.708 35.5405V50.4206H95.7003V8.0791H109.821C116.142 8.0791 121.828 11.9377 124.147 17.8076L127.41 26.1404L132.706 28.9112C135.168 30.2042 136.708 32.7698 136.708 35.5405Z" fill="#FFC20C"/>
<path d="M137.939 50.4207H95.7003V48.1014H137.939C138.596 48.1014 139.109 48.6145 139.109 49.2508C139.109 49.9076 138.596 50.4207 137.939 50.4207Z" fill="black"/>
<path d="M134.676 50.4208H110.313C110.313 43.6888 115.752 38.2294 122.484 38.2294C129.216 38.2294 134.676 43.6888 134.676 50.4208Z" fill="#231F20"/>
<path d="M113.782 50.4207C113.782 45.618 117.682 41.7184 122.484 41.7184C127.287 41.7184 131.187 45.618 131.187 50.4207C131.187 55.2233 127.287 59.123 122.484 59.123C117.682 59.123 113.782 55.2233 113.782 50.4207Z" fill="black"/>
<path d="M117.559 50.4207C117.559 47.691 119.775 45.4949 122.484 45.4949C125.214 45.4949 127.431 47.691 127.431 50.4207C127.431 53.1504 125.214 55.3465 122.484 55.3465C119.775 55.3465 117.559 53.1504 117.559 50.4207Z" fill="#FFE79E"/>
<path d="M118.503 50.4207C118.503 48.2246 120.288 46.4185 122.484 46.4185C124.701 46.4185 126.487 48.2246 126.487 50.4207C126.487 52.6168 124.701 54.4024 122.484 54.4024C120.288 54.4024 118.503 52.6168 118.503 50.4207Z" stroke="#FFC20C" stroke-width="0.328388" stroke-miterlimit="10"/>
<path d="M106.845 31.4768H101.981C101.611 31.4768 101.303 31.1689 101.303 30.7995C101.303 30.4301 101.611 30.1222 101.981 30.1222H106.845C107.214 30.1222 107.522 30.4301 107.522 30.7995C107.522 31.1689 107.214 31.4768 106.845 31.4768Z" fill="#231F20"/>
<path d="M101.303 27.7825V11.7531H113.248C115.383 11.7531 117.312 12.9845 118.215 14.8933L123.613 26.2842C123.942 26.982 123.428 27.7825 122.669 27.7825H101.303Z" fill="white"/>
<mask id="mask0_522_3790" style="mask-type:luminance" maskUnits="userSpaceOnUse" x="101" y="11" width="23" height="17">
<path d="M101.301 27.7742V11.7571H113.251C115.373 11.7571 117.304 12.9803 118.213 14.8973L123.605 26.2882C123.931 26.9799 123.429 27.7742 122.663 27.7742H101.301Z" fill="white"/>
</mask>
<g mask="url(#mask0_522_3790)">
<path d="M119.036 27.7824H117.312V22.7335C117.312 22.2409 117.682 21.8715 118.174 21.8715C118.646 21.8715 119.036 22.2409 119.036 22.7335V27.7824Z" fill="#1A1A1A"/>
<path d="M116.758 28.4189L116.532 30.656C116.341 30.6286 116.149 30.5944 115.958 30.5534C115.732 30.4918 115.527 30.4508 115.321 30.3687C114.48 30.0608 113.762 29.5887 113.146 29.0346C112.53 28.4804 112.017 27.8442 111.586 27.1874C111.175 26.5101 110.827 25.8328 110.519 25.176L113.023 24.1088C113.474 25.3402 114.028 26.4691 114.829 27.2695C115.219 27.68 115.67 28.0084 116.142 28.2341C116.265 28.2752 116.389 28.3162 116.512 28.3573L116.758 28.4189Z" fill="#FF8773"/>
<g style="mix-blend-mode:multiply" opacity="0.2">
<path d="M113.146 29.0344C113.337 29.2123 113.543 29.3765 113.762 29.527V27.0641C113.762 25.9763 113.413 24.9911 112.817 24.1907L110.519 25.1758C110.827 25.8326 111.175 26.5099 111.586 27.1872C112.017 27.844 112.53 28.4802 113.146 29.0344Z" fill="#FF8773"/>
</g>
<path d="M109.8 22.8771H107.399L107.666 19.0391H109.554L109.8 22.8771Z" fill="#FF8773"/>
<g style="mix-blend-mode:multiply" opacity="0.7">
<path d="M107.625 19.4085C108.035 20.3731 108.795 21.112 109.698 21.3788L109.554 19.0391H107.666L107.625 19.4085Z" fill="#FF8773"/>
</g>
<path d="M105.798 16.412C105.798 16.412 105.675 19.1622 107.83 19.6753C107.42 18.5055 107.44 16.412 107.44 16.412H105.798Z" fill="black"/>
<path d="M107.009 17.4382C106.886 15.4474 108.179 13.7644 109.882 13.6618C111.607 13.5591 113.084 15.0779 113.187 17.0688C113.31 19.0596 112.017 20.7426 110.313 20.8453C108.589 20.9479 107.112 19.4085 107.009 17.4382Z" fill="#FF8773"/>
<path d="M113.638 24.8476L110.683 26.9L109.246 24.8476C108.672 24.0266 108.877 22.8978 109.698 22.3436C110.519 21.769 111.627 21.9742 112.202 22.7952L113.638 24.8476Z" fill="#FFE79E"/>
<g style="mix-blend-mode:multiply">
<path d="M109.246 24.8475L110.683 26.8999L113.29 25.1143C112.612 23.6365 111.237 22.6103 109.677 22.364C108.877 22.9182 108.692 24.0265 109.246 24.8475Z" fill="#FFE79E"/>
</g>
<path d="M112.161 37.4903L108.138 36.9771C107.625 36.8951 107.214 36.4846 107.173 35.9509L106.332 24.6626C106.229 23.3491 107.276 22.2202 108.589 22.2202C111.258 22.2202 113.433 24.3958 113.433 27.0639V36.3819C113.433 37.0387 112.838 37.5724 112.161 37.4903Z" fill="#FFE79E"/>
<path d="M118.503 23.4928C118.503 23.3902 118.421 23.3081 118.318 23.3081C118.215 23.3081 118.154 23.3902 118.154 23.4928C118.113 23.9238 117.99 24.3343 117.743 24.6832L117.702 24.6627C117.887 24.3548 118.031 24.0059 118.072 23.616C118.072 23.5339 117.969 23.4312 117.887 23.4312C117.784 23.4312 117.702 23.5339 117.702 23.616C117.682 23.8007 117.62 24.0059 117.559 24.1701C117.497 24.3138 117.415 24.478 117.312 24.6011C117.299 24.6148 117.285 24.6285 117.271 24.6422C117.23 24.6832 117.169 24.7448 117.169 24.7448C117.169 24.7585 117.169 24.7653 117.169 24.7653C117.155 24.779 117.141 24.7927 117.128 24.8064C117.128 24.8064 117.128 24.7995 117.128 24.7858C117.128 24.7448 117.128 24.7106 117.128 24.6832C117.128 24.6695 117.128 24.6559 117.128 24.6422C117.128 24.6285 117.128 24.608 117.128 24.5806C117.155 24.4985 117.175 24.4233 117.189 24.3548C117.21 24.2727 117.169 24.1906 117.087 24.1701C117.025 24.1496 116.943 24.1906 116.922 24.2727C116.861 24.4369 116.82 24.6217 116.84 24.8064C116.84 24.9158 116.868 25.0185 116.922 25.1142C116.334 26.0584 115.698 26.9683 115.014 27.844C114.624 28.3776 114.213 28.8291 113.803 29.0754C113.597 29.2191 113.392 29.2807 113.146 29.3422C112.92 29.3833 112.674 29.4038 112.428 29.3833C112.181 29.3628 111.935 29.3012 111.689 29.2191C111.566 29.1575 111.463 29.1165 111.36 29.0549C111.237 29.0002 111.121 28.9317 111.011 28.8497C110.601 28.5623 110.211 28.1313 109.903 27.6592C109.287 26.7151 108.979 25.5042 108.754 24.2112L106.106 24.7448C106.27 25.4632 106.476 26.202 106.763 26.9409C107.05 27.6592 107.42 28.3981 107.912 29.0754C108.425 29.7322 109.041 30.3479 109.78 30.7995C109.971 30.9089 110.17 31.0047 110.375 31.0868C110.58 31.1826 110.792 31.2647 111.011 31.3331C111.442 31.4562 111.873 31.5178 112.325 31.5383C112.776 31.5383 113.228 31.4973 113.68 31.3536C114.111 31.2305 114.562 31.0252 114.932 30.7584C115.301 30.4916 115.609 30.1837 115.876 29.8759C116.122 29.5475 116.348 29.2396 116.553 28.9317C117.264 27.8645 117.921 26.763 118.523 25.6273C118.537 25.6137 118.551 25.5931 118.564 25.5658C118.79 25.2374 118.954 24.8885 119.036 24.519C119.077 24.3343 118.811 24.2522 118.77 24.4369C118.701 24.6832 118.605 24.9227 118.482 25.1553C118.469 25.1279 118.448 25.1074 118.421 25.0937C118.646 24.7037 118.811 24.2727 118.872 23.8417C118.872 23.7391 118.831 23.6365 118.728 23.616C118.646 23.5954 118.523 23.6365 118.523 23.7391C118.462 24.1496 118.339 24.5396 118.113 24.909L118.051 24.8679C118.318 24.4575 118.482 23.9854 118.503 23.4928Z" fill="#FF8773"/>
<path d="M109.883 26.2637L106.476 27.4335L105.655 25.0527C105.326 24.1291 105.819 23.1029 106.763 22.7745C107.707 22.4462 108.733 22.9387 109.062 23.8829L109.883 26.2637Z" fill="#FFE79E"/>
<path d="M112.284 14.0518C112.386 14.4418 112.12 14.8317 111.771 15.037C111.422 15.2217 111.011 15.2422 110.621 15.3038C109.985 15.4064 109.369 15.5706 108.815 15.858C108.261 16.1658 107.748 16.5763 107.399 17.1099C107.255 17.3357 107.112 17.6025 106.865 17.7051C106.558 17.8078 106.229 17.623 106.065 17.3562C105.901 17.0689 105.901 16.7405 105.901 16.4326C105.942 15.3859 106.25 14.2981 107.03 13.6208C107.502 13.2103 108.097 12.9846 108.713 12.8614C109.616 12.6767 110.601 12.6972 111.422 13.1077C111.668 13.2103 111.853 13.4977 112.017 13.7029C112.181 13.9287 112.325 14.0929 112.243 14.3597" fill="black"/>
<path d="M112.161 14.0927C112.325 14.811 111.463 15.0779 110.909 15.16C110.355 15.2421 109.821 15.3242 109.287 15.5294C108.836 15.7141 108.405 15.9399 108.035 16.2477C107.645 16.5761 107.42 16.9661 107.112 17.3561C106.886 17.6434 106.558 17.705 106.291 17.4381C106.024 17.1919 106.003 16.8019 106.003 16.4735C106.024 15.9604 106.106 15.4473 106.27 14.9752C106.681 13.8259 107.604 13.1896 108.754 12.9639C109.39 12.8407 110.088 12.8202 110.724 12.9639C111.052 13.046 111.401 13.1486 111.648 13.4154C111.832 13.6206 112.202 14.0106 112.14 14.3185C112.099 14.4621 112.325 14.5237 112.345 14.38C112.407 14.1132 112.325 13.949 112.161 13.7233C111.996 13.4975 111.832 13.2307 111.607 13.0665C111.073 12.6971 110.272 12.615 109.657 12.6355C108.364 12.656 106.989 13.1281 106.332 14.3185C106.024 14.8316 105.88 15.4268 105.819 16.0425C105.757 16.5967 105.716 17.315 106.229 17.6844C106.66 17.9923 107.071 17.8076 107.358 17.3971C107.768 16.8019 108.199 16.3093 108.877 15.9604C109.287 15.7552 109.739 15.591 110.211 15.5089C110.601 15.4063 111.011 15.3857 111.401 15.2831C111.976 15.1394 112.51 14.6879 112.386 14.0311C112.345 13.8875 112.14 13.949 112.161 14.0927Z" fill="black"/>
<path d="M113.043 18.0333C111.586 18.8337 109.759 18.1359 109.287 17.9101C109.226 17.8896 109.164 17.9307 109.144 17.9922C108.897 19.3673 109.349 20.3115 109.759 20.8656C109.787 20.893 109.814 20.9067 109.841 20.9067C109.978 20.9204 110.122 20.9204 110.272 20.9067C111.689 20.8246 112.858 19.6752 113.187 18.1564C113.207 18.0743 113.125 17.9922 113.043 18.0333Z" fill="white"/>
<path d="M106.886 17.0687C107.338 17.2603 107.775 17.486 108.2 17.746C108.405 17.8692 108.61 17.9992 108.815 18.136C109 18.2591 109.185 18.4438 109.205 18.6901C109.205 18.8338 109.451 18.8338 109.451 18.6901C109.41 18.136 108.836 17.8486 108.425 17.6023C107.96 17.315 107.467 17.0619 106.948 16.843C106.804 16.7814 106.742 17.0277 106.886 17.0687Z" fill="white"/>
<g style="mix-blend-mode:multiply" opacity="0.8">
<path d="M109.082 18.4235C109 19.5523 109.39 20.3733 109.759 20.8659C109.787 20.8932 109.814 20.9069 109.841 20.9069C109.978 20.9206 110.122 20.9206 110.272 20.9069C110.95 20.8659 111.586 20.5785 112.079 20.127C110.396 20.4759 109.328 18.8134 109.082 18.4235Z" fill="#E6E6E6"/>
</g>
<path d="M107.461 17.5819C107.584 18.095 107.42 18.5876 107.071 18.6697C106.742 18.7723 106.352 18.4234 106.209 17.9103C106.085 17.3972 106.25 16.9251 106.578 16.8225C106.927 16.7404 107.317 17.0688 107.461 17.5819Z" fill="#FF8773"/>
<g style="mix-blend-mode:multiply">
<path d="M106.434 17.3356C106.455 17.2535 106.517 17.1919 106.599 17.1509C106.701 17.1303 106.804 17.1509 106.886 17.1919C107.071 17.315 107.132 17.5408 107.153 17.7461C107.173 17.8076 107.255 17.8076 107.255 17.7461C107.235 17.4998 107.132 17.2124 106.886 17.0893C106.783 17.0482 106.66 17.0277 106.558 17.0688C106.455 17.1098 106.373 17.1919 106.332 17.3151C106.311 17.3766 106.414 17.3971 106.434 17.3356Z" fill="#FF8773"/>
<path d="M106.804 17.089C106.619 17.1711 106.599 17.3969 106.578 17.5816C106.578 17.6431 106.681 17.6431 106.681 17.5816C106.681 17.4379 106.701 17.2532 106.865 17.1711C106.886 17.1711 106.886 17.13 106.886 17.1095C106.865 17.089 106.824 17.089 106.804 17.089Z" fill="#FF8773"/>
</g>
<path d="M110.416 17.6845C110.416 17.8487 110.334 17.9719 110.252 17.9719C110.17 17.9719 110.088 17.8487 110.088 17.6845C110.088 17.5409 110.17 17.4177 110.252 17.4177C110.334 17.4177 110.416 17.5409 110.416 17.6845Z" fill="black" stroke="black" stroke-width="0.082097" stroke-miterlimit="10"/>
<path d="M112.817 17.5818C112.817 17.7254 112.735 17.8486 112.653 17.8486C112.571 17.8486 112.489 17.7254 112.489 17.5818C112.489 17.4176 112.571 17.2944 112.653 17.2944C112.735 17.2944 112.817 17.4176 112.817 17.5818Z" fill="black" stroke="black" stroke-width="0.082097" stroke-miterlimit="10"/>
<path d="M109.8 17.0071C109.883 16.9044 110.006 16.8429 110.129 16.8429C110.252 16.8223 110.375 16.8634 110.457 16.966C110.519 17.0071 110.601 16.9249 110.539 16.8839C110.437 16.7608 110.272 16.6992 110.129 16.7197C109.965 16.7197 109.821 16.8018 109.718 16.925C109.677 16.966 109.759 17.0686 109.8 17.0071Z" fill="#1A1A1A"/>
<path d="M112.161 16.8225C112.243 16.7199 112.345 16.6583 112.469 16.6583C112.612 16.6378 112.735 16.6993 112.817 16.7814C112.879 16.8225 112.961 16.7404 112.9 16.6993C112.797 16.5762 112.633 16.5146 112.469 16.5351C112.325 16.5351 112.181 16.6172 112.079 16.7404C112.038 16.7814 112.12 16.884 112.161 16.8225Z" fill="#1A1A1A"/>
<path d="M108.897 15.4885C109.082 15.2833 109.328 15.1602 109.575 15.0575C109.698 15.0165 109.821 14.996 109.965 14.9754C110.088 14.9549 110.231 14.9754 110.355 14.9754C109.841 15.037 109.328 15.1807 108.897 15.4885Z" fill="white"/>
<path d="M113.187 15.6732H105.798C105.798 13.9081 107.461 12.4714 109.493 12.4714C111.545 12.4714 113.187 13.9081 113.187 15.6732Z" fill="#FFE79E"/>
<g style="mix-blend-mode:multiply">
<path d="M107.44 22.6718C107.686 22.6307 107.953 22.6923 108.199 22.7949C108.425 22.9181 108.61 23.1028 108.774 23.3081C108.938 23.5133 109.061 23.7391 109.144 23.9648C109.185 24.088 109.226 24.2111 109.267 24.3343C109.287 24.4574 109.328 24.5806 109.328 24.7037C109.226 24.4779 109.144 24.2522 109.041 24.0264C108.918 23.8006 108.815 23.5954 108.651 23.4107C108.507 23.2054 108.323 23.0412 108.138 22.9181C107.933 22.7949 107.686 22.6923 107.44 22.6718Z" fill="#FFE79E"/>
</g>
<path d="M115.28 16.1862H105.737C105.593 16.1862 105.47 16.0836 105.47 15.9399C105.47 15.7962 105.593 15.6731 105.737 15.6731H115.28C115.424 15.6731 115.547 15.7962 115.547 15.9399C115.547 16.0836 115.424 16.1862 115.28 16.1862Z" fill="#FFC20C"/>
<g style="mix-blend-mode:multiply" opacity="0.5">
<path d="M105.798 15.6732H110.97C108.425 15.3038 107.112 14.4623 106.476 13.8671C106.045 14.3802 105.798 14.9959 105.798 15.6732Z" fill="#FFE79E"/>
</g>
</g>
<path d="M137.672 43.278H136.975C136.831 43.278 136.687 43.1548 136.687 42.9906V38.0238C136.687 37.8801 136.831 37.757 136.975 37.757H137.672C137.816 37.757 137.939 37.8801 137.939 38.0238V42.9906C137.939 43.1548 137.816 43.278 137.672 43.278Z" fill="#FFE79E"/>
<path d="M137.939 43.032V38.1677C138.986 38.1677 139.807 39.0092 139.807 40.0354V41.1848C139.807 42.211 138.986 43.032 137.939 43.032Z" fill="white"/>
<path d="M137.939 43.032V38.1677C138.986 38.1677 139.807 39.0092 139.807 40.0354V41.1848C139.807 42.211 138.986 43.032 137.939 43.032Z" fill="white"/>
<g style="mix-blend-mode:multiply" opacity="0.8">
<path d="M137.939 40.0354V43.0319C138.801 43.0319 139.52 42.4778 139.745 41.6979C138.74 41.4926 138.227 40.7127 137.939 40.0354Z" fill="#E6E6E6"/>
</g>
<g style="mix-blend-mode:multiply" opacity="0.3">
<path d="M95.7003 6.27307C76.4486 36.0127 46.2985 41.7184 34.3739 42.7857V50.4207H95.7003V6.27307Z" fill="#FFE79E"/>
</g>
<path d="M52.0042 8.73572H70.7017" stroke="#FFC20C" stroke-width="0.656776" stroke-miterlimit="10" stroke-linecap="round"/>
<path d="M42.2346 12.1635H70.7017" stroke="#FFC20C" stroke-width="0.656776" stroke-miterlimit="10" stroke-linecap="round"/>
<path d="M42.2346 16.3298H57.6688" stroke="#FFC20C" stroke-width="0.656776" stroke-miterlimit="10" stroke-linecap="round"/>
<path d="M75.5754 10.2422C75.5754 10.6851 75.4915 11.062 75.3235 11.3727C75.1569 11.6835 74.9295 11.9208 74.6413 12.0848C74.3543 12.2474 74.0317 12.3287 73.6734 12.3287C73.3124 12.3287 72.9884 12.2467 72.7015 12.0828C72.4146 11.9188 72.1878 11.6815 72.0212 11.3707C71.8546 11.06 71.7713 10.6838 71.7713 10.2422C71.7713 9.79923 71.8546 9.42238 72.0212 9.11165C72.1878 8.80092 72.4146 8.56423 72.7015 8.40159C72.9884 8.23763 73.3124 8.15565 73.6734 8.15565C74.0317 8.15565 74.3543 8.23763 74.6413 8.40159C74.9295 8.56423 75.1569 8.80092 75.3235 9.11165C75.4915 9.42238 75.5754 9.79923 75.5754 10.2422ZM74.7047 10.2422C74.7047 9.95526 74.6617 9.71328 74.5758 9.51626C74.4912 9.31925 74.3715 9.16983 74.2168 9.06802C74.0621 8.9662 73.8809 8.91529 73.6734 8.91529C73.4658 8.91529 73.2846 8.9662 73.1299 9.06802C72.9752 9.16983 72.8549 9.31925 72.7689 9.51626C72.6843 9.71328 72.642 9.95526 72.642 10.2422C72.642 10.5291 72.6843 10.7711 72.7689 10.9681C72.8549 11.1651 72.9752 11.3145 73.1299 11.4164C73.2846 11.5182 73.4658 11.5691 73.6734 11.5691C73.8809 11.5691 74.0621 11.5182 74.2168 11.4164C74.3715 11.3145 74.4912 11.1651 74.5758 10.9681C74.6617 10.7711 74.7047 10.5291 74.7047 10.2422ZM77.0407 10.5119V12.2732H76.1957V9.22669H77.001V9.76419H77.0367C77.1041 9.58701 77.2172 9.44684 77.3759 9.34371C77.5345 9.23925 77.7269 9.18702 77.953 9.18702C78.1646 9.18702 78.3491 9.2333 78.5064 9.32586C78.6638 9.41842 78.7861 9.55064 78.8733 9.72254C78.9606 9.89311 79.0042 10.0967 79.0042 10.3334V12.2732H78.1593V10.4842C78.1606 10.2977 78.113 10.1523 78.0165 10.0478C77.92 9.94203 77.7871 9.88914 77.6178 9.88914C77.5041 9.88914 77.4036 9.91361 77.3164 9.96253C77.2304 10.0115 77.163 10.0829 77.1141 10.1767C77.0665 10.2693 77.042 10.381 77.0407 10.5119ZM81.0585 12.3327C80.7452 12.3327 80.4754 12.2692 80.2493 12.1423C80.0245 12.014 79.8513 11.8329 79.7297 11.5988C79.608 11.3635 79.5472 11.0851 79.5472 10.7638C79.5472 10.4504 79.608 10.1754 79.7297 9.93873C79.8513 9.70204 80.0226 9.51759 80.2434 9.38536C80.4655 9.25313 80.726 9.18702 81.0248 9.18702C81.2258 9.18702 81.4129 9.21941 81.5861 9.28421C81.7607 9.34767 81.9127 9.44354 82.0423 9.5718C82.1732 9.70006 82.275 9.86138 82.3478 10.0557C82.4205 10.2488 82.4568 10.4749 82.4568 10.7341V10.9661H79.8844V10.4425H81.6615C81.6615 10.3209 81.6351 10.2131 81.5822 10.1192C81.5293 10.0253 81.4559 9.95195 81.362 9.89906C81.2695 9.84485 81.1617 9.81774 81.0387 9.81774C80.9105 9.81774 80.7967 9.84749 80.6976 9.90699C80.5997 9.96517 80.523 10.0438 80.4675 10.143C80.412 10.2409 80.3835 10.35 80.3822 10.4703V10.9681C80.3822 11.1189 80.41 11.2491 80.4655 11.3588C80.5224 11.4686 80.6024 11.5532 80.7055 11.6127C80.8086 11.6722 80.9309 11.702 81.0724 11.702C81.1663 11.702 81.2523 11.6888 81.3303 11.6623C81.4083 11.6359 81.4751 11.5962 81.5306 11.5433C81.5861 11.4904 81.6284 11.4256 81.6575 11.3489L82.439 11.4005C82.3993 11.5883 82.318 11.7522 82.195 11.8924C82.0734 12.0312 81.916 12.1396 81.723 12.2177C81.5313 12.2943 81.3098 12.3327 81.0585 12.3327ZM83.0241 12.2732V8.21119H85.7612V8.91926H83.8829V9.88716H85.6204V10.5952H83.8829V11.5651H85.7691V12.2732H83.0241ZM87.1778 8.21119L88.1596 11.2974H88.1973L89.1811 8.21119H90.1331L88.7328 12.2732H87.6261L86.2238 8.21119H87.1778Z" fill="#FFBD0B"/>
</svg>
